<svg xmlns="http://www.w3.org/2000/svg" enable-background="new 0 0 5100 5000" viewBox="0 0 5100 5000"><path fill="#e6614a" d="M4398.931,2437.92c4.898,860.864-595.131,1608.928-1405.021,1818.211    c-350.283,90.126-727.537,78.662-1070.318-37.869c-236.83-79.574-459.076-206.62-644.856-372.036    C-3.883,2725.938,790.687,558.331,2521.074,560.23C3558.201,560.23,4398.931,1400.959,4398.931,2437.92z" class="colore6614a svgShape"/><path fill="#f6af9a" d="M3769.29,3839.65c-693.211,631.743-1791.415,631.96-2489.343,7.783      c225.752-138.297,571.958-255.012,879.114-275.219C2671.615,3518.074,3315.572,3590.752,3769.29,3839.65z" class="colorf6af9a svgShape"/><path fill="#25305b" d="M2538.537 4315.601c-458.225 6.409-918.082-165.045-1259.801-469.375 176.485-106.883 469.752-225.198 725.938-257.603C2025.064 3681.052 2135.939 3982.581 2538.537 4315.601zM3772.748 3836.712c-311.297 281.802-721.289 453.681-1141.547 475.952 229.319-122.609 371.448-296.346 503.609-698.446C3351.342 3656.959 3606.669 3745.008 3772.748 3836.712z" class="color25305b svgShape"/><path fill="#121d3f" d="M2004.673 3588.622c-64.462 8.154-131.272 21.756-197.98 39.238-24.942 100.869-47.863 394.07.161 546.71 231.254 95.295 481.534 144.007 731.682 141.03C2135.94 3982.58 2025.064 3681.052 2004.673 3588.622zM2975.289 4260.73c5.607-1.383 11.187-2.87 16.78-4.305 104.147-27.059 205.921-63.177 303.879-107.668 23.931-67.794 40.793-140.033 41.655-208.83.795-165.792-7.605-240.793-25.392-283.086-60.266-16.85-120.188-31.331-177.4-42.624-62.995 191.666-128.264 331.419-204.153 438.509-1.114 1.577-2.226 3.157-3.344 4.719-.371.515-.742 1.026-1.114 1.539-12.113 16.854-24.514 32.862-37.261 48.122-.693.832-1.393 1.651-2.087 2.479-1.518 1.801-3.032 3.607-4.56 5.387-71.9 84.205-153.616 145.574-251.091 197.691 112.521-6.579 224.567-23.128 334.175-49.532C2968.678 4262.325 2971.991 4261.554 2975.289 4260.73z" class="color121d3f svgShape"/><path fill="#ededed" d="M2487.363 4315.424c-13.83-.347-27.662-.693-41.492-1.385-24.722-.861-49.445-2.245-74.167-4.145-72.092-5.361-143.665-15.212-214.549-29.393l-3.457-25.063-4.495-32.854L2487.363 4315.424zM2999.096 4222.584l-5.187 33.546c-14.004 3.799-28.18 7.259-42.357 10.366-59.472 14.005-119.461 24.903-180.663 32.677-13.657 1.899-27.661 3.63-41.491 5.014-32.848 3.808-65.522 6.567-98.198 8.476-8.299.515-16.597 1.038-24.896 1.207l157.497-84.711 31.812-17.119L2999.096 4222.584z" class="colorededed svgShape"/><path fill="#ffffff" d="M2539.054 4315.601c-56.307.605-551.324-75.552-615.463-97.339-60.386-154.243-118.986-435.265-28.349-659.547 44.254-89.033 266.408-127.24 266.408-127.24-.387 31.403-.314 72.388-1.21 108.575.173.169.173.338 0 .515v5.014c-3.66.217-132.753 15.389-140.381 16.25C2061.47 3692.636 2165.808 3992.325 2539.054 4315.601zM3171.98 4200.29c-71.592 26.541-306.024 124.115-581.406 114.273 406.413-348.354 472.909-704.616 456.076-714.003-7.51-1.238-102.194-15.821-109.445-17.12-11.396-43.942-20.291-104.219-25.76-151.965 0 0 225.614 38.207 270.043 127.24C3267.763 3770.387 3225.411 4044.501 3171.98 4200.29z" class="colorfff svgShape"/><path fill="#ededed" d="M2915.863 3466.211c0 0 135.289 34.139 145.578 41.476 0 0-.814 56.475-8.482 95.231 0 0-115.294-15.821-115.883-17.989-8.71-32.072-14.11-67.994-17.942-93.446C2917.056 3477.687 2915.863 3466.211 2915.863 3466.211zM2027.877 3588.716c0 0-16.421-48.084-18.437-56.991-2.724-12.032 151.903-63.841 151.903-63.841s.243 100.942-3.994 117.505C2157.349 3585.389 2038.218 3587.325 2027.877 3588.716z" class="colorededed svgShape"/><g fill="#000000" class="color000 svgShape"><path fill="#f6af9a" d="M2182.353,3084.223c0,0,0,296.555-45.254,496.301c-8.29,36.593-17.48,70.205-29.706,97.613       c-47.722,106.988,247.945,311.372,443.995,305.606c196.048-5.766,466.601-127.255,420.928-282.542       c-57.662-196.05-74.96-311.372-86.493-616.979C2872.299,2725.816,2245.781,2669.06,2182.353,3084.223z" class="colorf6af9a svgShape"/><path fill="#eda48e" d="M2522.555,3522.45c132.578,0,263.782-68.471,377.834-188.059       c-8.376-88.372-11.082-177.926-15.645-266.747c-14.034-170.057-180.281-274.135-347.543-273.89       c-173.516-2.195-329.453,105.303-354.847,290.47c-0.002-0.001-0.002,127.587-12.773,271.756       C2284.595,3491.04,2416.093,3522.45,2522.555,3522.45z" class="coloreda48e svgShape"/><path fill="#f6af9a" d="M2536.971,1322.663c0,0-716.754-40.408-683.288,810.145        c34.596,879.338,412.215,1239.723,668.873,1239.723c334.437,0,660.224-435.345,723.652-1029.258        C3309.635,1749.359,3032.86,1316.898,2536.971,1322.663z" class="colorf6af9a svgShape"/><ellipse cx="2793.241" cy="2413.095" fill="#121d3f" rx="60.77" ry="74.709" class="color121d3f svgShape"/><path fill="#121d3f" d="M2365.24,2413.095c0,41.261-27.208,74.709-60.77,74.709          c-33.561,0-60.769-33.448-60.769-74.709c0-41.261,27.207-74.71,60.769-74.71          C2338.032,2338.385,2365.24,2371.834,2365.24,2413.095z" class="color121d3f svgShape"/><path fill="#e08c79" d="M2541.379,2768.798c-36.344-0.775-87.07-7.33-105.063-36.14         c-6.796-10.886-11.88-29.142,2.522-54.292c56.616-98.901,88.495-257.797,88.814-259.387         c2.17-10.994,12.848-18.151,23.85-15.974c10.994,2.174,18.152,12.851,15.974,23.846         c-1.333,6.769-33.446,166.952-93.407,271.684c-1.251,2.194-5.201,9.586-3.313,12.612         c8.098,12.986,59.357,19.089,100.343,16.438c11.19-0.686,20.845,7.749,21.573,18.937c0.73,11.183-7.74,20.842-18.925,21.579         C2566.654,2768.563,2555.031,2769.089,2541.379,2768.798z" class="colore08c79 svgShape"/><path fill="#0c1630" d="M2634.602 2212.531c0 0-17.176 35.232 20.627 51.951 37.802 16.719 214.962-5.485 298.289-8.689 83.328-3.202 70.375-50.372-28.26-58.67C2839.556 2189.912 2637.059 2184.197 2634.602 2212.531zM2467.063 2212.531c0 0 17.176 35.232-20.626 51.951-37.802 16.719-214.963-5.485-298.292-8.689-83.327-3.202-70.374-50.372 28.262-58.67C2262.109 2189.912 2464.605 2184.197 2467.063 2212.531z" class="color0c1630 svgShape"/><path fill="#eda48e" d="M2654.593 2661.642c0 0 .706-79.242 148.634-86.99 147.926-7.75 218.006 29.973 213.917 86.99C3013.054 2718.66 2659.552 2774.353 2654.593 2661.642zM2387.082 2684.144c0 0-.706-79.24-148.634-86.99-147.927-7.75-218.005 29.972-213.916 86.99C2028.62 2741.162 2382.123 2796.855 2387.082 2684.144z" class="coloreda48e svgShape"/><path fill="#ffffff" d="M2317.977,2926.924c52.46,54.562,222.38,193.525,451.93,0.865          c8.181-6.868,3.347-20.224-7.334-20.224h-436.351C2316.136,2907.565,2310.986,2919.653,2317.977,2926.924z" class="colorfff svgShape"/><path fill="#eda48e" d="M2484.799,3093.365c-6.17,0-11.906-3.939-13.898-10.126          c-2.478-7.677,1.735-15.907,9.409-18.383c2.523-0.812,62.114-19.611,113.791,0.268c7.533,2.896,11.286,11.346,8.392,18.874          c-2.904,7.529-11.374,11.288-18.872,8.389c-42.188-16.215-93.821,0.102-94.335,0.267          C2487.791,3093.135,2486.278,3093.365,2484.799,3093.365z" class="coloreda48e svgShape"/><g fill="#000000" class="color000 svgShape"><path fill="#0c1630" d="M2010.007,2122.011c-26.433,99.124-35.093,214.643-129.503,291.516l-62.86,75.057         c0,0,1.586-87.393,0.01-493.136c-2.542-653.605,548.328-694.235,700.318-641.37c0,0,585.265-237.58,754.307,482.311         c126.505,538.742-79.882,567.031-79.882,567.031s-91.619-83.628-91.619-275.591c0-38.38,25.139-407.115-179.969-550.553         c-219.909-153.788-658.492-41.901-702.942-38.483C2131.96,1545.402,2036.44,2022.889,2010.007,2122.011z" class="color0c1630 svgShape"/><path fill="#121d3f" d="M3451.848,2133.994c0,0-331.264,129.418-443.882,9.17         c-13.736-14.667-14.854-81.482-21.527-103.02c-61.388-198.136-32.288-110.509-114.375-280.719         c-49.322-102.271-198.931-175.533-296.54-78.616c-4.243,4.185-8.341,8.745-12.295,13.623c0,0-10.073-6.407-27.447-13.594         c-47.65-19.655-160.448-72.298-260.626,13.594c-120.514,103.295-107.139,235.668-151.727,426.134         c-5.388,23.018-91.876,11.315-118.8,22.729c0,0-175.438,44.555-317.811,21.466c0,0,29.121-296.264,177.008-566.958         c147.915-270.693,473.706-325.905,655.101-306.365c0,0,427.469-54.749,650.742,160.125         C3392.913,1666.436,3413.375,1936.436,3451.848,2133.994z" class="color121d3f svgShape"/><path fill="#0c1630" d="M2563.228,1694.432c0,0,122.721,0.41,192.935,98.468          c70.214,98.058,168.675,376.089,171.096,429.356c0,0,84.74-196.115,14.527-368.019          C2871.572,1682.333,2698.055,1521.728,2563.228,1694.432z" class="color0c1630 svgShape"/><path fill="#0c1630" d="M2575.523,1680.809c-4.243,4.185-8.341,8.745-12.295,13.623c0,0-10.073-6.407-27.447-13.594          l-26.293-364.32L2575.523,1680.809z" class="color0c1630 svgShape"/><path fill="#f6af9a" d="M1911.098 2403.421c-6.797-37.614-34.022-68.803-70.843-79.062-23.797-6.63-51.648-4.871-78.832 18.915-69.194 60.544 77.843 415.163 207.581 380.566L1911.098 2403.421zM3192.396 2403.421c6.797-37.614 34.022-68.803 70.841-79.062 23.799-6.63 51.65-4.871 78.833 18.915 69.194 60.544-77.844 415.163-207.582 380.566L3192.396 2403.421z" class="colorf6af9a svgShape"/></g></g><g fill="#000000" class="color000 svgShape"><path fill="#e6eded" d="M2529.063,4435.272c-26.059,0-52.029-0.528-78.098-1.602     c-162.707-5.225-325.142-30.902-482.784-76.316c-273.368-78.118-532.539-218.387-749.421-405.617     c-1.622-1.31-3.409-2.801-5.314-4.507c-326.442-282.575-547.413-646.814-639.081-1053.448     c-85.311-378.43-57.258-775.776,81.121-1149.086c138.246-372.951,375.639-691.851,686.522-922.222     c335.35-248.506,743.078-380.505,1179.12-381.722c533.74-0.01,1035.244,207.731,1412.457,584.953     c377.224,377.224,584.963,878.732,584.963,1412.142c0,570.979-245.119,1115.667-672.585,1494.7     c-1.857,1.707-3.771,3.375-5.742,4.998C3481.47,4256.181,3007.628,4435.245,2529.063,4435.272z M1370.448,3764.073l3.947,3.32     c190.964,165.381,419.299,289.205,660.317,358.08c138.878,40.012,281.637,62.558,424.565,67.103l1.127,0.047     c444.137,18.266,889.425-141.137,1221.781-437.366l4.884-4.235c375.149-333.243,590.244-811.685,590.244-1313.175     c0-468.976-182.656-909.906-514.305-1241.554c-331.654-331.658-772.575-514.306-1241.546-514.306     c-896.493,2.509-1434.929,593.922-1639.778,1146.55C676.533,2381.976,697.382,3180.8,1370.448,3764.073z" class="colore6eded svgShape"/><circle cx="3975.855" cy="3961.154" r="477.472" fill="#73e09e" transform="rotate(-45.001 3975.829 3961.219)" class="color73e09e svgShape"/><path fill="#e6eded" d="M3975.86,4559.248c-329.792,0-598.095-268.299-598.095-598.089s268.303-598.09,598.095-598.09      c329.79,0,598.089,268.3,598.089,598.09S4305.65,4559.248,3975.86,4559.248z M3975.86,3604.304      c-196.774,0-356.86,160.081-356.86,356.854s160.086,356.854,356.86,356.854c196.772,0,356.854-160.082,356.854-356.854      S4172.632,3604.304,3975.86,3604.304z" class="colore6eded svgShape"/></g></svg>