<svg xmlns="http://www.w3.org/2000/svg" width="126" height="126" viewBox="0 0 126 126">
  <g fill="none" fill-rule="evenodd">
    <polygon points="0 126 126 126 126 0 0 0"/>
    <g transform="translate(24 13)">
      <path fill="#D9E1E8" d="M70,97 C70.553,97 71,97.447 71,98 C71,98.553 70.553,99 70,99 L13,99 C12.447,99 12,98.553 12,98 C12,97.447 12.447,97 13,97 L70,97 Z M7,97 C7.553,97 8,97.447 8,98 C8,98.553 7.553,99 7,99 L2,99 C1.447,99 1,98.553 1,98 C1,97.447 1.447,97 2,97 L7,97 Z"/>
      <path fill="#FFB5B3" d="M72.3569,20.3986 C72.4349,20.9456 72.0549,21.4516 71.5079,21.5306 C64.8829,22.4766 58.8539,25.7366 55.3809,30.2496 C55.1839,30.5056 54.8869,30.6396 54.5869,30.6396 C54.3739,30.6396 54.1599,30.5726 53.9779,30.4316 C53.5399,30.0956 53.4589,29.4676 53.7959,29.0296 C57.5799,24.1126 64.0959,20.5686 71.2249,19.5496 C71.7729,19.4746 72.2779,19.8506 72.3569,20.3986 Z M82.0565,8.9246 C82.6075,8.9556 83.0295,9.4276 82.9985,9.9786 C82.9697143,10.4911714 82.5649898,10.8813041 82.0621542,10.918409 L81.9072965,10.9192143 C80.9053692,10.8820296 60.76388,10.23962 47.8955,24.8426 C47.6985,25.0676 47.4215,25.1816 47.1455,25.1816 C46.9105,25.1816 46.6745,25.0996 46.4845,24.9316 C46.0705,24.5666 46.0305,23.9346 46.3955,23.5206 C60.1835,7.8726 81.1725,8.8726 82.0565,8.9246 Z"/>
      <path fill="#7992A5" d="M52.6914,99 L25.3084,99 C22.2774,99 19.7224,96.739 19.3524,93.731 L13.0004,42 L65.0004,42 L58.6474,93.731 C58.2774,96.739 55.7224,99 52.6914,99"/>
      <path fill="#D9E1E8" d="M25.993,52.887 L29.993,87.887 C30.057,88.436 29.662,88.931 29.113,88.993 C29.075,88.998 29.037,89 28.999,89 C28.497,89 28.064,88.624 28.007,88.113 L24.007,53.113 C23.943,52.564 24.338,52.069 24.887,52.007 C25.422,51.932 25.932,52.337 25.993,52.887 Z M53.113,52.007 C53.662,52.069 54.057,52.564 53.993,53.113 L49.993,88.113 C49.936,88.624 49.503,89 49.001,89 C48.963,89 48.925,88.998 48.887,88.993 C48.338,88.931 47.943,88.436 48.007,87.887 L52.007,52.887 C52.068,52.337 52.568,51.931 53.113,52.007 Z M39,52.069 C39.553,52.069 40,52.517 40,53.069 L40,88 C40,88.553 39.553,89 39,89 C38.447,89 38,88.553 38,88 L38,53.069 C38,52.517 38.447,52.069 39,52.069 Z"/>
      <path fill="#2B5571" d="M67.5,38 C68.881,38 70,39.119 70,40.5 C70,41.881 68.881,43 67.5,43 L10.5,43 C9.119,43 8,41.881 8,40.5 C8,39.119 9.119,38 10.5,38 L67.5,38 Z M47.8322,0.8762 C50.4454308,-0.5678 53.7175281,0.318916634 55.256358,2.84720072 L55.3742,3.0502 L55.4239961,3.15498607 C55.5803743,3.54531334 55.4507476,3.99495649 55.1102382,4.24280446 L55.0122,4.3052 L2.3602,33.3692 C1.9132,33.6152 1.3512,33.4542 1.1042,33.0082 C-0.3398,30.3949692 0.546916634,27.1228719 3.07427569,25.5877421 L3.2772,25.4702 L10.8432,21.2942 L10.6172,20.8872 C9.5822,19.0142 9.3392,16.8522 9.9302,14.7992 C10.4949619,12.8420571 11.7526943,11.2060027 13.4883017,10.1622817 L13.7522,10.0102 L29.1662,1.5022 C32.949,-0.58618 37.7046852,0.7214144 39.900962,4.40567226 L40.0322,4.6342 L40.2632,5.0512 L40.2632,5.0542 L47.8322,0.8762 Z M36.5322,6.5702 C35.5005871,4.70245806 33.1821896,3.98664121 31.287222,4.9067211 L31.0992,5.0042 L15.6852,13.5122 C14.7492,14.0282 14.0702,14.8792 13.7742,15.9062 C13.5009692,16.8542 13.5830521,17.8482118 14.004718,18.7317166 L14.1172,18.9502 L14.3442,19.3582 L14.3432,19.3612 L36.7632,6.9862 L36.5322,6.5702 Z"/>
    </g>
  </g>
</svg>
