<svg id="SvgjsSvg1001" width="256" height="256" xmlns="http://www.w3.org/2000/svg" version="1.1" xmlns:xlink="http://www.w3.org/1999/xlink" xmlns:svgjs="http://svgjs.com/svgjs"><defs id="SvgjsDefs1002"></defs><g id="SvgjsG1008"><svg xmlns="http://www.w3.org/2000/svg" viewBox="0 0 350.98 350.96" width="256" height="256"><g data-name="Layer 2" fill="#000000" class="color000 svgShape"><g data-name="Layer 1" fill="#000000" class="color000 svgShape"><path fill="#ffffff" d="M175.57,351a175.66,175.66,0,1,1,63.53-12,175.21,175.21,0,0,1-63.53,12Z" class="colorfff svgShape"></path><ellipse cx="175.53" cy="175.48" fill="#ffffff" rx="157.65" ry="157.51" transform="rotate(-66.32 175.516 175.479)" class="colorfff svgShape"></ellipse><circle cx="175.53" cy="175.48" r="157.58" fill="#edf2f4" class="coloredf2f4 svgShape"></circle><path fill="#ffc261" d="M159.11,283.56c-7.21,1-14.75,1.26-21.59-1.25s-12.87-8.22-14-15.41c-.86-5.24.92-10.64,3.84-15.08s6.89-8.07,10.89-11.56C150.51,251.43,155.91,267.26,159.11,283.56Z" class="colorffc261 svgShape"></path><path fill="#c2cece" d="M89.47,78.77c1.65,4.8,5.34,10.69,10,13.59.62-.48,1.23-1,1.84-1.46,3,5.16,7,10.17,13.07,12.83a234.36,234.36,0,0,1,50.93-48.14c4.57-.3,9.15-.49,13.74-.52,7.34-.06,14.69.22,22,.87a18.46,18.46,0,0,0,1-11l-2.17-.16a15.08,15.08,0,0,0-1.37-8.41c1-.47,2-1,2.94-1.4a20.43,20.43,0,0,0-4.59-10,243.44,243.44,0,0,0-33.41,18.61c-1.22.4-2.44.8-3.65,1.23l-.58.2c-4.12.37-8.25.83-12.35,1.4a246.14,246.14,0,0,0-46.64,11.23c-4.36,1.52-8.7,3.17-13,4.94.22,3.3,3.16,10.14,5.52,13.94C91.6,77.22,90.52,78,89.47,78.77Z" class="colorc2cece svgShape"></path><path fill="#47b730" d="M153.58,98.18a5.89,5.89,0,0,1,.87,8.28,5.65,5.65,0,0,1-.92.91,5.89,5.89,0,0,1-8.24-8.31,6.21,6.21,0,0,1,.93-.92A5.91,5.91,0,0,1,153.58,98.18Z" class="color47b730 svgShape"></path><path fill="#3da025" d="M153.58,98.18a5.89,5.89,0,0,1,.87,8.28,5.65,5.65,0,0,1-.92.91,12.21,12.21,0,0,0-7.31-9.23A5.91,5.91,0,0,1,153.58,98.18Z" class="color3da025 svgShape"></path><path fill="#47b730" d="M147.38,105.39a5.88,5.88,0,0,1,.87,8.28,6,6,0,0,1-.91.91,5.89,5.89,0,0,1-8.24-8.31,5.78,5.78,0,0,1,.93-.92A5.88,5.88,0,0,1,147.38,105.39Z" class="color47b730 svgShape"></path><path fill="#3da025" d="M147.38,105.39a5.88,5.88,0,0,1,.87,8.28,6,6,0,0,1-.91.91,12.53,12.53,0,0,0-3.42-6.62,12.27,12.27,0,0,0-3.89-2.61A5.88,5.88,0,0,1,147.38,105.39Z" class="color3da025 svgShape"></path><path fill="#d66b22" d="M126.22,114.57c-2.42,7.55-10.84,11.61-18.81,9.06s-11.35-10.38-8.93-17.94,9.71-12,17.68-9.41S128.63,107,126.22,114.57Z" class="colord66b22 svgShape"></path><path fill="#ff7f1f" d="M122.73,113.44a13.6,13.6,0,0,1-1.79,3.27,18.28,18.28,0,0,1-4.36,4.62c-11,7.19-24.51-5-18.89-16.62,1.41-2.91,3.33-6.81,6.29-8.3a13.6,13.6,0,0,1,18.75,17Z" class="colorff7f1f svgShape"></path><path fill="#d66b22" d="M104.35,107c-.31,1.84.52,3.66,1.44,5.28.8,1.41,1.82,2.86,3.36,3.33a5.1,5.1,0,0,0,4.71-1.42,7.34,7.34,0,0,0,2.49-5,5.58,5.58,0,0,0-2.43-4.9C111.36,102.63,104.93,103.4,104.35,107Z" class="colord66b22 svgShape"></path><path fill="#47b730" d="M130.57,99.47a5.87,5.87,0,0,1,.87,8.28,5.16,5.16,0,0,1-.91.9,5.89,5.89,0,0,1-8.24-8.31,6.21,6.21,0,0,1,.93-.92A5.88,5.88,0,0,1,130.57,99.47Z" class="color47b730 svgShape"></path><path fill="#3da025" d="M130.57,99.47a5.87,5.87,0,0,1,.87,8.28,5.16,5.16,0,0,1-.91.9,12.21,12.21,0,0,0-7.31-9.23A5.88,5.88,0,0,1,130.57,99.47Z" class="color3da025 svgShape"></path><path fill="#d66b22" d="M156.35,92.28c-2.42,7.55-10.84,11.6-18.81,9S126.2,91,128.61,83.4s9.71-12,17.68-9.42S158.77,84.72,156.35,92.28Z" class="colord66b22 svgShape"></path><path fill="#ff7f1f" d="M152.86,91.14a13.32,13.32,0,0,1-1.79,3.28A18.38,18.38,0,0,1,146.72,99c-11,7.2-24.51-5-18.9-16.61,1.41-2.91,3.33-6.82,6.29-8.3a13.59,13.59,0,0,1,18.75,17Z" class="colorff7f1f svgShape"></path><path fill="#d66b22" d="M134.48,84.65c-.3,1.84.52,3.67,1.44,5.29.8,1.41,1.82,2.85,3.36,3.33A5.1,5.1,0,0,0,144,91.84a7.3,7.3,0,0,0,2.49-5,5.6,5.6,0,0,0-2.43-4.91C141.5,80.33,135.06,81.11,134.48,84.65Z" class="colord66b22 svgShape"></path><path fill="#47b730" d="M159.46,74.57a5.87,5.87,0,0,1,.87,8.28,5.16,5.16,0,0,1-.91.9,5.89,5.89,0,1,1,0-9.18Z" class="color47b730 svgShape"></path><path fill="#3da025" d="M159.46,74.57a5.87,5.87,0,0,1,.87,8.28,5.16,5.16,0,0,1-.91.9,12.21,12.21,0,0,0-7.31-9.23A5.89,5.89,0,0,1,159.46,74.57Z" class="color3da025 svgShape"></path><path fill="#c2cece" d="M223.41,293.75S254.63,281.35,266,245l-53,.44s-1.92,35.59-2,37.13S223.41,293.75,223.41,293.75Z" class="colorc2cece svgShape"></path><path fill="#c2cece" d="M306.55,225.16a79.61,79.61,0,0,1-7.77,10c-7.84,8.87-9.55,9.54-20.13,18.67-10.27,8.86-37.73-2.54-48.83-9.85-.35-.22-.66-.48-1-.71a68.59,68.59,0,0,1-6-3.52,37.66,37.66,0,0,1-13.42-15.48,44,44,0,0,1-1.91-4.57c-3.81-10.75-6.08-19.5-2.95-30.72,1.45-5.18,2-10.62,2.77-15.93.71-4.93-2.5-11.3.1-15.57,3.48-5.69,12.2-14.47,20.53-21.07,7.92-6.28,17.2-6.29,26.92-3A37.06,37.06,0,0,1,265.22,139c6,2.81,11,7.23,15.5,12.14,1.26,1.38,2.49,2.8,3.68,4.23,6.29,7.54,13.85,14.75,18,23.74,2,4.36,4.2,8.67,5.82,13.2a44.21,44.21,0,0,1,2.45,10.29C311.51,210.16,310.73,218.56,306.55,225.16Z" class="colorc2cece svgShape"></path><path fill="#ffc261" d="M280.72,151.09c-4.48-4.91-9.45-9.33-15.5-12.14a37.06,37.06,0,0,0-10.35-5.59c-9.72-3.27-19-3.26-26.92,3-8.33,6.6-17,15.38-20.53,21.07-2.6,4.27.61,10.64-.1,15.57-.75,5.31-1.32,10.75-2.77,15.93-3.13,11.22-.86,20,2.95,30.72a44,44,0,0,0,1.91,4.57c-5.82,3.89-11.6,7.55-18.9,8.44-7.67.92-16.68,0-24.28-1.54-13.2-2.61-29.65-12.82-36.12-24.64-4.36-8-5.38-18.9.86-26.21,6.67-7.81,19.25-9.16,24.71-17.86,4.24-6.76,2.64-15.44,2.44-23.42-.13-5.37,1-12.48,4.78-16.68,4-4.54,12.25-4.93,17.93-4.45,6.29.53,12.36,2.47,18.36,4.39,8.57,2.75,17.18,3.4,26.08,1,6.38-1.72,12.81-3.28,19.24-4.8,9.29-2.11,19.91-1.49,27.11,4.73C279.29,129.82,281.17,141,280.72,151.09Z" class="colorffc261 svgShape"></path><path fill="#ed9b3a" d="M279.87,201.08c-2.26,4.89-7.63,7.67-12.94,8.58s-10.73.29-16.12.31a67.5,67.5,0,0,0-35.33,10.26c-2.08,1.29-4.07,2.66-6.07,4a44,44,0,0,1-1.91-4.57c-3.81-10.75-6.08-19.5-2.95-30.72,1.45-5.18,2-10.62,2.77-15.93.71-4.93-2.5-11.3.1-15.57,3.48-5.69,12.2-14.47,20.53-21.07,7.92-6.28,17.2-6.29,26.92-3A37.06,37.06,0,0,1,265.22,139c6,2.81,11,7.23,15.5,12.14,0,.16,0,.34,0,.5-.54,10.29-2.91,20.59-1.42,30.79C280.2,188.65,282.53,195.32,279.87,201.08Z" class="colored9b3a svgShape"></path><path fill="#c2cece" d="M111.2,194.22c12,11.27,3.23,40.21-8,52.19a29.78,29.78,0,1,1-43.35-40.83C71.08,193.61,99.23,183,111.2,194.22Z" class="colorc2cece svgShape"></path><path fill="#edf2f4" d="M109.41,224.17a29.46,29.46,0,1,1-34-24.15A29.31,29.31,0,0,1,109.41,224.17Z" class="coloredf2f4 svgShape"></path><circle cx="80.36" cy="229.07" r="21.66" fill="#bf5c19" class="colorbf5c19 svgShape"></circle><path fill="#9b4b15" d="M75.19,244.56a16.32,16.32,0,0,1-4.85-28.37,21.63,21.63,0,0,0,23.55,22A16.32,16.32,0,0,1,75.19,244.56Z" class="color9b4b15 svgShape"></path><path fill="#c2cece" d="M103.39,127.14c12,11.28,3.24,40.22-8,52.19A29.78,29.78,0,0,1,52,138.5C63.28,126.53,91.42,115.87,103.39,127.14Z" class="colorc2cece svgShape"></path><path fill="#edf2f4" d="M101.61,157.09a29.47,29.47,0,1,1-34-24.15A29.41,29.41,0,0,1,101.61,157.09Z" class="coloredf2f4 svgShape"></path><circle cx="72.55" cy="162" r="21.66" fill="#ffc261" class="colorffc261 svgShape"></circle><path fill="#ed9b3a" d="M67.38,177.48a16.32,16.32,0,0,1-4.85-28.36,21.63,21.63,0,0,0,23.55,22A16.3,16.3,0,0,1,67.38,177.48Z" class="colored9b3a svgShape"></path><path fill="#47b730" d="M85.62,90.14a247.49,247.49,0,0,1,53.85-32.31l3.31-1.41q5.24-2.2,10.59-4.17A243.79,243.79,0,0,1,191.2,41.74c1.91,3.51,2.87,7.09,2.09,10.84q-9,1.71-17.78,4.15a234.74,234.74,0,0,0-59.93,26,231.46,231.46,0,0,0-23.1,16.1C89,96.18,86.57,93.32,85.62,90.14Z" class="color47b730 svgShape"></path><path fill="#3da025" d="M139.47,57.83q6.87-3,13.9-5.58A243.79,243.79,0,0,1,191.2,41.74c1.91,3.51,2.87,7.09,2.09,10.84q-9,1.71-17.78,4.15A228.33,228.33,0,0,0,139.47,57.83Z" class="color3da025 svgShape"></path><path fill="#3da025" d="M115.58,82.7a29.59,29.59,0,0,1,2-13.93,244.78,244.78,0,0,1,21.93-10.94l3.31-1.41c1.05,1.48,1,3.58.69,5.42a22.19,22.19,0,0,1-3,7.63A234.37,234.37,0,0,0,115.58,82.7Z" class="color3da025 svgShape"></path><path fill="#47b730" d="M81.13,71.26Q87.51,68.5,94,66.1a245.84,245.84,0,0,1,46.43-12c7.09-1.12,14.23-1.92,21.38-2.41h.06q10.59-.74,21.23-.54,6.24.11,12.49.56a18.51,18.51,0,0,1-.77,11c-7.33-.52-14.69-.68-22-.49s-14.8.71-22.15,1.6l-2.55.31q-10.77,1.41-21.38,3.81A232.65,232.65,0,0,0,85.52,81.38,17.79,17.79,0,0,1,81.13,71.26Z" class="color47b730 svgShape"></path><path fill="#3da025" d="M126.75,67.93a135.81,135.81,0,0,1,13.71-13.85c7.09-1.12,14.23-1.92,21.38-2.41,0,1.6-1.32,3.17-2.56,4.35-2.8,2.67-5.66,5.28-8.6,7.79A236.42,236.42,0,0,0,126.75,67.93Z" class="color3da025 svgShape"></path><path fill="#3da025" d="M148.13,64.12A71.84,71.84,0,0,1,161.9,51.68q10.59-.74,21.23-.54a42.25,42.25,0,0,0-10.3,11.07q-11.12.27-22.15,1.6Z" class="color3da025 svgShape"></path><path fill="#47b730" d="M190.09,31.79a20.48,20.48,0,0,1,4.76,10A234.59,234.59,0,0,0,109,112a17.16,17.16,0,0,1-8.81-6.64A245.44,245.44,0,0,1,190.09,31.79Z" class="color47b730 svgShape"></path><path fill="#ed9b3a" d="M142.28,201.75c25.42-11.95,55.72-16.18,83-9.55-1.84,11.72-4.7,23.44-11.71,33s-18.26,16.61-30.11,16.14a53.35,53.35,0,0,1-13.57-2.83c-4.07-1.25-8.17-2.61-11.68-5-4.88-3.32-8.31-8.43-10.57-13.88A102.33,102.33,0,0,1,142.28,201.75Z" class="colored9b3a svgShape"></path><path fill="#9b4b15" d="M298.7,201.81a43.71,43.71,0,0,1,2.44,10.29c.82,7.61,0,16-4.14,22.61a78.59,78.59,0,0,1-7.77,10c-7.84,8.88-19.43,15.29-30.94,17.81-13.26,2.89-26.92-1.67-38-9a38.87,38.87,0,0,1-15.32-20c-3.81-10.75-6.08-19.49-2.94-30.72,1.44-5.17,2-10.61,2.77-15.92.7-4.93,2.59-9.46,4.44-14.11,3.68-9.29,7.66-17.13,16.18-22.54s17.2-6.29,26.92-3c9.41,3.19,16.31,10.26,22.53,17.71s13.85,14.75,18,23.74C294.92,193,297.08,197.28,298.7,201.81Z" class="color9b4b15 svgShape"></path><path fill="#bf5c19" d="M291.7,197.57a43.59,43.59,0,0,1,2.44,10.29c.82,7.6,0,16-4.14,22.61a78.59,78.59,0,0,1-7.77,10c-7.84,8.87-19.43,15.29-30.94,17.8-13.26,2.9-26.92-1.66-38-9a38.83,38.83,0,0,1-15.32-20c-3.81-10.74-6.08-19.49-2.94-30.71,1.44-5.18,2-10.62,2.77-15.93.7-4.93,2.59-9.45,4.44-14.1,3.68-9.29,7.66-17.13,16.18-22.54s17.2-6.3,26.92-3c9.41,3.19,16.31,10.27,22.53,17.72s13.85,14.74,18,23.73C287.92,188.72,290.08,193,291.7,197.57Z" class="colorbf5c19 svgShape"></path><path fill="#9b4b15" d="M210.9 169.5a46.35 46.35 0 0110-5.67 77 77 0 0110.53-3.61 67.14 67.14 0 0111-2 27 27 0 015.95.13 14.71 14.71 0 015.7 2A86.29 86.29 0 00243.74 164a82.43 82.43 0 01-10.43 3.52 75.62 75.62 0 01-10.94 2A46.84 46.84 0 01210.9 169.5zM206.47 193.16a78.56 78.56 0 0114.65-7.43 130.93 130.93 0 0115.29-4.95 119 119 0 0115.87-3 49.59 49.59 0 018.37-.25 26.68 26.68 0 018.31 1.73c-5.38 1.72-10.12 3.59-15.07 5.44a142 142 0 01-15.22 4.87 130.83 130.83 0 01-15.78 3.05A77.82 77.82 0 01206.47 193.16zM218.61 242.71a78.56 78.56 0 0114.65-7.43 131.09 131.09 0 0115.3-4.95 118.53 118.53 0 0115.86-3 49.67 49.67 0 018.38-.25 26.62 26.62 0 018.3 1.73c-5.38 1.72-10.11 3.59-15.06 5.44a141.43 141.43 0 01-15.23 4.87 130.83 130.83 0 01-15.78 3A77.79 77.79 0 01218.61 242.71zM204.89 218.35a105.29 105.29 0 0118.21-8.71A179.44 179.44 0 01242 203.69a164.44 164.44 0 0119.53-3.82 72.07 72.07 0 0110.21-.56A38.28 38.28 0 01282 200.83c-6.54 2.22-12.48 4.49-18.64 6.73a190.88 190.88 0 01-18.86 5.87 181.7 181.7 0 01-19.45 3.84A105.89 105.89 0 01204.89 218.35z" class="color9b4b15 svgShape"></path><path fill="#9b4b15" d="M227,214.94a43.63,43.63,0,0,1,8,6.87c5.15,5.66,9.48,12.91,10,20.7a78.33,78.33,0,0,1-.41,12.63c-1.1,11.79-6.68,23.8-14.49,32.62-9,10.15-22.73,14.52-36,15.17a38.77,38.77,0,0,1-24.19-7.17c-9.41-6.43-16.41-12.15-20.49-23.07-1.88-5-4.63-9.76-7.15-14.5-2.34-4.39-3.48-9.16-4.73-14-2.5-9.67-3.91-18.35-.22-27.74s10.19-15.23,20-18.31c9.49-3,19.23-1.32,28.64,1s19.88,3.75,28.57,8.54C218.74,210,223,212.23,227,214.94Z" class="color9b4b15 svgShape"></path><path fill="#bf5c19" d="M218.85,215.63a43.81,43.81,0,0,1,8,6.88c5.14,5.66,9.47,12.91,10,20.7a79.53,79.53,0,0,1-.4,12.63c-1.1,11.79-6.68,23.8-14.5,32.62-9,10.15-22.72,14.52-36,15.17a38.83,38.83,0,0,1-24.19-7.17c-9.41-6.43-16.4-12.16-20.49-23.07-1.88-5-4.63-9.76-7.15-14.5-2.34-4.39-3.47-9.16-4.72-14-2.5-9.68-3.91-18.35-.22-27.74s10.18-15.23,20-18.31c9.48-3,19.22-1.33,28.64,1s19.88,3.75,28.56,8.54C210.58,210.72,214.87,212.93,218.85,215.63Z" class="colorbf5c19 svgShape"></path><path fill="#9b4b15" d="M137 240.6a46.28 46.28 0 014.72-10.46 75.83 75.83 0 016.37-9.12 67.82 67.82 0 017.73-8.14 27.53 27.53 0 014.89-3.41 14.6 14.6 0 015.75-1.77 87 87 0 00-6.19 9.06 83.4 83.4 0 01-6.35 9 75.68 75.68 0 01-7.64 8.09A46.45 46.45 0 01137 240.6zM147.41 262.32a77.74 77.74 0 017.45-14.64 130.73 130.73 0 019.44-13 117.36 117.36 0 0111-11.8 50.65 50.65 0 016.62-5.14 26.35 26.35 0 017.73-3.5c-3.34 4.56-6.06 8.86-9 13.28a143.75 143.75 0 01-9.43 12.91 132 132 0 01-10.95 11.76A78.27 78.27 0 01147.41 262.32zM186.42 295.19a78.37 78.37 0 017.46-14.64 129.14 129.14 0 019.44-13 117.46 117.46 0 0111-11.81 50.65 50.65 0 016.62-5.14 26.87 26.87 0 017.73-3.5c-3.34 4.57-6.06 8.87-9 13.28a141 141 0 01-9.43 12.91 130.75 130.75 0 01-11 11.77A77.93 77.93 0 01186.42 295.19zM161 283.59a105.64 105.64 0 019.58-17.76 177.83 177.83 0 0111.77-16 162.58 162.58 0 0113.52-14.6 71.08 71.08 0 017.92-6.47 37.85 37.85 0 019.17-4.81c-4 5.65-7.44 11-11.09 16.43a192.33 192.33 0 01-11.78 15.85 177.69 177.69 0 01-13.44 14.57A105.59 105.59 0 01161 283.59z" class="color9b4b15 svgShape"></path><ellipse cx="189.67" cy="214.23" fill="#ffcb9c" rx="2.85" ry="4.53" transform="rotate(-36.54 189.661 214.23)" class="colorffcb9c svgShape"></ellipse><ellipse cx="180.55" cy="275.16" fill="#ffcb9c" rx="4.53" ry="2.85" transform="matrix(.99 -.1 .1 .99 -26.7 19.51)" class="colorffcb9c svgShape"></ellipse><ellipse cx="160.01" cy="249.75" fill="#ffcb9c" rx="2.85" ry="4.53" transform="rotate(-75.91 159.989 249.744)" class="colorffcb9c svgShape"></ellipse><ellipse cx="212.94" cy="242.93" fill="#ffcb9c" rx="4.53" ry="2.85" transform="rotate(-68.96 212.917 242.921)" class="colorffcb9c svgShape"></ellipse><ellipse cx="263.38" cy="200.05" fill="#ffcb9c" rx="2.85" ry="4.53" transform="rotate(-42.43 263.404 200.055)" class="colorffcb9c svgShape"></ellipse><ellipse cx="257.03" cy="227.15" fill="#ffcb9c" rx="4.53" ry="2.85" transform="rotate(-68.96 257.013 227.155)" class="colorffcb9c svgShape"></ellipse><ellipse cx="225.29" cy="185.4" fill="#ffcb9c" rx="4.53" ry="2.85" transform="rotate(-68.96 225.274 185.396)" class="colorffcb9c svgShape"></ellipse><ellipse cx="166.49" cy="182.24" fill="#ed9b3a" rx="4.53" ry="2.85" transform="rotate(-68.96 166.483 182.231)" class="colored9b3a svgShape"></ellipse><ellipse cx="180.16" cy="154.78" fill="#ed9b3a" rx="2.85" ry="4.53" transform="rotate(-49.88 180.173 154.782)" class="colored9b3a svgShape"></ellipse><ellipse cx="192.05" cy="174.44" fill="#ed9b3a" rx="4.53" ry="2.85" transform="rotate(-14.33 192.085 174.446)" class="colored9b3a svgShape"></ellipse><ellipse cx="212.94" cy="140.38" fill="#ed9b3a" rx="2.85" ry="4.53" transform="rotate(-41.81 212.96 140.383)" class="colored9b3a svgShape"></ellipse><path fill="#47b730" d="M208.77,73.68a5.89,5.89,0,0,1,.56,8.31,5.54,5.54,0,0,1-1,.87,5.89,5.89,0,0,1-7.93-8.61,6.73,6.73,0,0,1,1-.89A5.89,5.89,0,0,1,208.77,73.68Z" class="color47b730 svgShape"></path><path fill="#3da025" d="M208.77,73.68a5.89,5.89,0,0,1,.56,8.31,5.54,5.54,0,0,1-1,.87,12.58,12.58,0,0,0-3.17-6.75,12.41,12.41,0,0,0-3.79-2.75A5.89,5.89,0,0,1,208.77,73.68Z" class="color3da025 svgShape"></path><path fill="#47b730" d="M208.6,92.94a5.88,5.88,0,0,1,.87,8.28,5.21,5.21,0,0,1-.92.9,5.88,5.88,0,0,1-8.24-8.3,6.29,6.29,0,0,1,.93-.93A5.89,5.89,0,0,1,208.6,92.94Z" class="color47b730 svgShape"></path><path fill="#3da025" d="M208.6,92.94a5.88,5.88,0,0,1,.87,8.28,5.21,5.21,0,0,1-.92.9,12.16,12.16,0,0,0-7.31-9.23A5.89,5.89,0,0,1,208.6,92.94Z" class="color3da025 svgShape"></path><path fill="#47b730" d="M234.88,101.51a5.88,5.88,0,0,1,.87,8.28,5.28,5.28,0,0,1-.92.91,5.89,5.89,0,0,1-8.24-8.31,6.72,6.72,0,0,1,.93-.92A5.89,5.89,0,0,1,234.88,101.51Z" class="color47b730 svgShape"></path><path fill="#3da025" d="M234.88,101.51a5.88,5.88,0,0,1,.87,8.28,5.28,5.28,0,0,1-.92.91,12.44,12.44,0,0,0-3.41-6.62,12.2,12.2,0,0,0-3.9-2.61A5.89,5.89,0,0,1,234.88,101.51Z" class="color3da025 svgShape"></path><path fill="#47b730" d="M133.26,115.33a5.89,5.89,0,0,1,.87,8.28,5.58,5.58,0,0,1-.92.9A5.89,5.89,0,0,1,125,116.2a6.21,6.21,0,0,1,.93-.92A5.89,5.89,0,0,1,133.26,115.33Z" class="color47b730 svgShape"></path><path fill="#3da025" d="M133.26,115.33a5.89,5.89,0,0,1,.87,8.28,5.58,5.58,0,0,1-.92.9,12.21,12.21,0,0,0-7.31-9.23A5.89,5.89,0,0,1,133.26,115.33Z" class="color3da025 svgShape"></path><path fill="#47b730" d="M118.8,108.8a5.88,5.88,0,0,1,.87,8.28,5.21,5.21,0,0,1-.92.9,5.88,5.88,0,0,1-8.24-8.3,6.29,6.29,0,0,1,.93-.93A5.91,5.91,0,0,1,118.8,108.8Z" class="color47b730 svgShape"></path><path fill="#3da025" d="M118.8,108.8a5.88,5.88,0,0,1,.87,8.28,5.21,5.21,0,0,1-.92.9,12.16,12.16,0,0,0-7.31-9.23A5.91,5.91,0,0,1,118.8,108.8Z" class="color3da025 svgShape"></path><path fill="#47b730" d="M160.71,93.58a5.89,5.89,0,0,1,.87,8.28,5.58,5.58,0,0,1-.92.9,5.89,5.89,0,1,1,.05-9.18Z" class="color47b730 svgShape"></path><path fill="#3da025" d="M160.71,93.58a5.89,5.89,0,0,1,.87,8.28,5.58,5.58,0,0,1-.92.9,12.21,12.21,0,0,0-7.31-9.23A5.91,5.91,0,0,1,160.71,93.58Z" class="color3da025 svgShape"></path><path fill="#47b730" d="M143.55,78.28a5.88,5.88,0,0,1,.87,8.28,5.65,5.65,0,0,1-.92.91,5.89,5.89,0,0,1-8.24-8.31,6.72,6.72,0,0,1,.93-.92A5.89,5.89,0,0,1,143.55,78.28Z" class="color47b730 svgShape"></path><path fill="#3da025" d="M143.55,78.28a5.88,5.88,0,0,1,.87,8.28,5.65,5.65,0,0,1-.92.91,12.47,12.47,0,0,0-3.41-6.63,12.34,12.34,0,0,0-3.9-2.6A5.89,5.89,0,0,1,143.55,78.28Z" class="color3da025 svgShape"></path><path fill="#47b730" d="M131.55,88.84a5.88,5.88,0,0,1,.87,8.28,5.28,5.28,0,0,1-.92.91,5.89,5.89,0,0,1-8.24-8.31,6.72,6.72,0,0,1,.93-.92A5.91,5.91,0,0,1,131.55,88.84Z" class="color47b730 svgShape"></path><path fill="#3da025" d="M131.55,88.84a5.88,5.88,0,0,1,.87,8.28,5.28,5.28,0,0,1-.92.91,12.16,12.16,0,0,0-7.31-9.23A5.91,5.91,0,0,1,131.55,88.84Z" class="color3da025 svgShape"></path><path fill="#47b730" d="M168.85,87.69a5.88,5.88,0,0,1,.87,8.28,5.21,5.21,0,0,1-.92.9,5.88,5.88,0,0,1-8.24-8.3,7.43,7.43,0,0,1,.93-.93A5.91,5.91,0,0,1,168.85,87.69Z" class="color47b730 svgShape"></path><path fill="#3da025" d="M168.85,87.69a5.88,5.88,0,0,1,.87,8.28,5.21,5.21,0,0,1-.92.9,12.16,12.16,0,0,0-7.31-9.23A5.91,5.91,0,0,1,168.85,87.69Z" class="color3da025 svgShape"></path><path fill="#47b730" d="M161.82,83.1a5.87,5.87,0,0,1,.87,8.28,5.16,5.16,0,0,1-.91.9,5.89,5.89,0,1,1,0-9.18Z" class="color47b730 svgShape"></path><path fill="#3da025" d="M161.82,83.1a5.87,5.87,0,0,1,.87,8.28,5.16,5.16,0,0,1-.91.9,12.21,12.21,0,0,0-7.31-9.23A5.89,5.89,0,0,1,161.82,83.1Z" class="color3da025 svgShape"></path><path fill="#47b730" d="M155.33,107.87a5.89,5.89,0,0,1,.87,8.28,5.65,5.65,0,0,1-.92.91,5.89,5.89,0,0,1-8.24-8.31,6.21,6.21,0,0,1,.93-.92A5.89,5.89,0,0,1,155.33,107.87Z" class="color47b730 svgShape"></path><path fill="#3da025" d="M155.33,107.87a5.89,5.89,0,0,1,.87,8.28,5.65,5.65,0,0,1-.92.91,12.53,12.53,0,0,0-3.42-6.62,12.21,12.21,0,0,0-3.89-2.61A5.89,5.89,0,0,1,155.33,107.87Z" class="color3da025 svgShape"></path><path fill="#47b730" d="M170.22,97.54a5.88,5.88,0,0,1,.87,8.28,5.28,5.28,0,0,1-.92.91,5.89,5.89,0,0,1-8.24-8.31,6.72,6.72,0,0,1,.93-.92A5.91,5.91,0,0,1,170.22,97.54Z" class="color47b730 svgShape"></path><path fill="#3da025" d="M170.22,97.54a5.88,5.88,0,0,1,.87,8.28,5.28,5.28,0,0,1-.92.91,12.16,12.16,0,0,0-7.31-9.23A5.91,5.91,0,0,1,170.22,97.54Z" class="color3da025 svgShape"></path><path fill="#47b730" d="M205.69,115.76a5.88,5.88,0,0,1,.87,8.28,5.65,5.65,0,0,1-.92.91,5.89,5.89,0,0,1-8.24-8.31,6.72,6.72,0,0,1,.93-.92A5.89,5.89,0,0,1,205.69,115.76Z" class="color47b730 svgShape"></path><path fill="#3da025" d="M205.69,115.76a5.88,5.88,0,0,1,.87,8.28,5.65,5.65,0,0,1-.92.91,12.44,12.44,0,0,0-3.41-6.62,12.2,12.2,0,0,0-3.9-2.61A5.89,5.89,0,0,1,205.69,115.76Z" class="color3da025 svgShape"></path><path fill="#47b730" d="M148,132.47a5.89,5.89,0,0,1,.87,8.28,5.28,5.28,0,0,1-.92.91,5.89,5.89,0,0,1-8.24-8.31,6.72,6.72,0,0,1,.93-.92A5.89,5.89,0,0,1,148,132.47Z" class="color47b730 svgShape"></path><path fill="#3da025" d="M148,132.47a5.89,5.89,0,0,1,.87,8.28,5.28,5.28,0,0,1-.92.91,12.44,12.44,0,0,0-3.41-6.62,12.2,12.2,0,0,0-3.9-2.61A5.89,5.89,0,0,1,148,132.47Z" class="color3da025 svgShape"></path><path fill="#47b730" d="M139.75,157.42a5.88,5.88,0,0,1,.87,8.28,5.16,5.16,0,0,1-.91.9,5.88,5.88,0,0,1-8.24-8.3,5.78,5.78,0,0,1,.93-.92A5.88,5.88,0,0,1,139.75,157.42Z" class="color47b730 svgShape"></path><path fill="#3da025" d="M139.75,157.42a5.88,5.88,0,0,1,.87,8.28,5.16,5.16,0,0,1-.91.9,12.53,12.53,0,0,0-3.42-6.62,12.29,12.29,0,0,0-3.89-2.6A5.88,5.88,0,0,1,139.75,157.42Z" class="color3da025 svgShape"></path><path fill="#47b730" d="M124.69,135.75a5.89,5.89,0,0,1,.87,8.28,5.65,5.65,0,0,1-.92.91,5.89,5.89,0,0,1-8.24-8.31,6.21,6.21,0,0,1,.93-.92A5.89,5.89,0,0,1,124.69,135.75Z" class="color47b730 svgShape"></path><path fill="#3da025" d="M124.69,135.75a5.89,5.89,0,0,1,.87,8.28,5.65,5.65,0,0,1-.92.91,12.46,12.46,0,0,0-3.42-6.62,12,12,0,0,0-3.89-2.61A5.89,5.89,0,0,1,124.69,135.75Z" class="color3da025 svgShape"></path><path fill="#47b730" d="M145.64,98.18a5.88,5.88,0,0,1,.87,8.28,5.28,5.28,0,0,1-.92.91,5.89,5.89,0,0,1-8.24-8.31,6.72,6.72,0,0,1,.93-.92A5.91,5.91,0,0,1,145.64,98.18Z" class="color47b730 svgShape"></path><path fill="#3da025" d="M145.64,98.18a5.88,5.88,0,0,1,.87,8.28,5.28,5.28,0,0,1-.92.91,12.16,12.16,0,0,0-7.31-9.23A5.91,5.91,0,0,1,145.64,98.18Z" class="color3da025 svgShape"></path><path fill="#47b730" d="M138.81,102.79a5.89,5.89,0,0,1,.87,8.28,5.65,5.65,0,0,1-.92.91,5.89,5.89,0,0,1-8.24-8.31,6.21,6.21,0,0,1,.93-.92A5.89,5.89,0,0,1,138.81,102.79Z" class="color47b730 svgShape"></path><path fill="#3da025" d="M138.81,102.79a5.89,5.89,0,0,1,.87,8.28,5.65,5.65,0,0,1-.92.91,12.53,12.53,0,0,0-3.42-6.62,12.16,12.16,0,0,0-3.89-2.61A5.89,5.89,0,0,1,138.81,102.79Z" class="color3da025 svgShape"></path><path fill="#47b730" d="M166.6,107.23a5.89,5.89,0,0,1,.87,8.28,5.65,5.65,0,0,1-.92.91,5.89,5.89,0,0,1-8.24-8.31,6.21,6.21,0,0,1,.93-.92A5.89,5.89,0,0,1,166.6,107.23Z" class="color47b730 svgShape"></path><path fill="#3da025" d="M166.6,107.23a5.89,5.89,0,0,1,.87,8.28,5.65,5.65,0,0,1-.92.91,12.53,12.53,0,0,0-3.42-6.62,12.16,12.16,0,0,0-3.89-2.61A5.89,5.89,0,0,1,166.6,107.23Z" class="color3da025 svgShape"></path><path fill="#47b730" d="M161.09,102.15a5.88,5.88,0,0,1,.87,8.28,5.22,5.22,0,0,1-.91.91,5.89,5.89,0,0,1-8.24-8.31,5.78,5.78,0,0,1,.93-.92A5.88,5.88,0,0,1,161.09,102.15Z" class="color47b730 svgShape"></path><path fill="#3da025" d="M161.09,102.15a5.88,5.88,0,0,1,.87,8.28,5.22,5.22,0,0,1-.91.91,12.53,12.53,0,0,0-3.42-6.62,12.16,12.16,0,0,0-3.89-2.61A5.88,5.88,0,0,1,161.09,102.15Z" class="color3da025 svgShape"></path><path fill="#47b730" d="M178.37,102.79a5.88,5.88,0,0,1,.87,8.28,5.28,5.28,0,0,1-.92.91,5.89,5.89,0,0,1-8.24-8.31,6.72,6.72,0,0,1,.93-.92A5.89,5.89,0,0,1,178.37,102.79Z" class="color47b730 svgShape"></path><path fill="#3da025" d="M178.37,102.79a5.88,5.88,0,0,1,.87,8.28,5.28,5.28,0,0,1-.92.91,12.44,12.44,0,0,0-3.41-6.62,12.2,12.2,0,0,0-3.9-2.61A5.89,5.89,0,0,1,178.37,102.79Z" class="color3da025 svgShape"></path><path fill="#47b730" d="M187.49,104.07a5.88,5.88,0,0,1,.87,8.28,5.28,5.28,0,0,1-.92.91A5.89,5.89,0,0,1,179.2,105a6.72,6.72,0,0,1,.93-.92A5.89,5.89,0,0,1,187.49,104.07Z" class="color47b730 svgShape"></path><path fill="#3da025" d="M187.49,104.07a5.88,5.88,0,0,1,.87,8.28,5.28,5.28,0,0,1-.92.91,12.44,12.44,0,0,0-3.41-6.62,12.2,12.2,0,0,0-3.9-2.61A5.89,5.89,0,0,1,187.49,104.07Z" class="color3da025 svgShape"></path><path fill="#47b730" d="M172.48,65.65a5.88,5.88,0,0,1,.87,8.28,5.16,5.16,0,0,1-.91.9,5.88,5.88,0,0,1-8.24-8.3,5.46,5.46,0,0,1,.93-.93A5.89,5.89,0,0,1,172.48,65.65Z" class="color47b730 svgShape"></path><path fill="#3da025" d="M172.48,65.65a5.88,5.88,0,0,1,.87,8.28,5.16,5.16,0,0,1-.91.9,12.21,12.21,0,0,0-7.31-9.23A5.89,5.89,0,0,1,172.48,65.65Z" class="color3da025 svgShape"></path><path fill="#d66b22" d="M193.65,89.25c-2.42,7.55-10.84,11.6-18.81,9s-11.34-10.38-8.93-17.93,9.71-12,17.68-9.42S196.07,81.69,193.65,89.25Z" class="colord66b22 svgShape"></path><path fill="#ff7f1f" d="M190.16,88.11a13.66,13.66,0,0,1-1.79,3.28A18.38,18.38,0,0,1,184,96c-11,7.2-24.51-5-18.9-16.62,1.41-2.9,3.33-6.81,6.29-8.29a13.59,13.59,0,0,1,18.75,17Z" class="colorff7f1f svgShape"></path><path fill="#d66b22" d="M171.78,81.62c-.3,1.84.52,3.67,1.44,5.29.8,1.4,1.82,2.85,3.36,3.33a5.1,5.1,0,0,0,4.71-1.43,7.34,7.34,0,0,0,2.49-5,5.6,5.6,0,0,0-2.43-4.91C178.79,77.3,172.36,78.08,171.78,81.62Z" class="colord66b22 svgShape"></path><path fill="#47b730" d="M186.58,92.35a5.88,5.88,0,0,1,4.84,6.77,5.54,5.54,0,0,1-.35,1.24A5.89,5.89,0,0,1,179.8,97.2a6.33,6.33,0,0,1,.36-1.26A5.88,5.88,0,0,1,186.58,92.35Z" class="color47b730 svgShape"></path><path fill="#3da025" d="M186.58,92.35a5.88,5.88,0,0,1,4.84,6.77,5.54,5.54,0,0,1-.35,1.24,12.13,12.13,0,0,0-10.91-4.42A5.88,5.88,0,0,1,186.58,92.35Z" class="color3da025 svgShape"></path><path fill="#47b730" d="M149.44,113.76a5.89,5.89,0,0,1,.87,8.28,5.65,5.65,0,0,1-.92.91,5.89,5.89,0,0,1-8.24-8.31,6.72,6.72,0,0,1,.93-.92A5.89,5.89,0,0,1,149.44,113.76Z" class="color47b730 svgShape"></path><path fill="#3da025" d="M149.44,113.76a5.89,5.89,0,0,1,.87,8.28,5.65,5.65,0,0,1-.92.91,12.44,12.44,0,0,0-3.41-6.62,12.2,12.2,0,0,0-3.9-2.61A5.89,5.89,0,0,1,149.44,113.76Z" class="color3da025 svgShape"></path><path fill="#47b730" d="M148,123.67a5.89,5.89,0,0,1,.87,8.28,5.28,5.28,0,0,1-.92.91,5.89,5.89,0,0,1-8.24-8.31,6.72,6.72,0,0,1,.93-.92A5.89,5.89,0,0,1,148,123.67Z" class="color47b730 svgShape"></path><path fill="#3da025" d="M148,123.67a5.89,5.89,0,0,1,.87,8.28,5.28,5.28,0,0,1-.92.91,12.44,12.44,0,0,0-3.41-6.62,12.2,12.2,0,0,0-3.9-2.61A5.89,5.89,0,0,1,148,123.67Z" class="color3da025 svgShape"></path><path fill="#47b730" d="M134.85,128a5.89,5.89,0,0,1,.87,8.28,5.58,5.58,0,0,1-.92.9,5.88,5.88,0,0,1-8.24-8.3,6.21,6.21,0,0,1,.93-.92A5.89,5.89,0,0,1,134.85,128Z" class="color47b730 svgShape"></path><path fill="#3da025" d="M134.85,128a5.89,5.89,0,0,1,.87,8.28,5.58,5.58,0,0,1-.92.9,12.53,12.53,0,0,0-3.42-6.62,12.18,12.18,0,0,0-3.89-2.6A5.89,5.89,0,0,1,134.85,128Z" class="color3da025 svgShape"></path><path fill="#47b730" d="M140.73,109.44a5.87,5.87,0,0,1,.87,8.28,5.16,5.16,0,0,1-.91.9,5.88,5.88,0,0,1-8.24-8.3,5.46,5.46,0,0,1,.93-.93A5.89,5.89,0,0,1,140.73,109.44Z" class="color47b730 svgShape"></path><path fill="#3da025" d="M140.73,109.44a5.87,5.87,0,0,1,.87,8.28,5.16,5.16,0,0,1-.91.9,12.21,12.21,0,0,0-7.31-9.23A5.89,5.89,0,0,1,140.73,109.44Z" class="color3da025 svgShape"></path><path fill="#d66b22" d="M175.57,131.47c-2.41,7.55-10.83,11.61-18.81,9.06s-11.34-10.38-8.92-17.93,9.7-12,17.68-9.42S178,123.92,175.57,131.47Z" class="colord66b22 svgShape"></path><path fill="#ff7f1f" d="M172.08,130.34a13.26,13.26,0,0,1-1.79,3.27,18.24,18.24,0,0,1-4.35,4.62c-11,7.19-24.51-5-18.89-16.62,1.4-2.91,3.33-6.81,6.28-8.3a13.6,13.6,0,0,1,18.75,17Z" class="colorff7f1f svgShape"></path><path fill="#d66b22" d="M153.7,123.85c-.3,1.84.52,3.67,1.44,5.29.81,1.4,1.82,2.85,3.37,3.32a5.11,5.11,0,0,0,4.71-1.42,7.33,7.33,0,0,0,2.48-5,5.53,5.53,0,0,0-2.43-4.9C160.72,119.53,154.29,120.3,153.7,123.85Z" class="colord66b22 svgShape"></path><path fill="#47b730" d="M178.72,111.89a5.88,5.88,0,0,1,4.84,6.77,6,6,0,0,1-.35,1.24,5.89,5.89,0,0,1-11.27-3.16,6.51,6.51,0,0,1,.35-1.26A5.91,5.91,0,0,1,178.72,111.89Z" class="color47b730 svgShape"></path><path fill="#3da025" d="M178.72,111.89a5.88,5.88,0,0,1,4.84,6.77,6,6,0,0,1-.35,1.24,12.52,12.52,0,0,0-6.24-4.07,12.31,12.31,0,0,0-4.68-.35A5.91,5.91,0,0,1,178.72,111.89Z" class="color3da025 svgShape"></path><path fill="#47b730" d="M186.84,70.26a5.89,5.89,0,0,1,.87,8.28,5.58,5.58,0,0,1-.92.9,5.89,5.89,0,0,1-8.24-8.31,6.21,6.21,0,0,1,.93-.92A5.89,5.89,0,0,1,186.84,70.26Z" class="color47b730 svgShape"></path><path fill="#3da025" d="M186.84,70.26a5.89,5.89,0,0,1,.87,8.28,5.58,5.58,0,0,1-.92.9,12.21,12.21,0,0,0-7.31-9.23A5.89,5.89,0,0,1,186.84,70.26Z" class="color3da025 svgShape"></path><path fill="#47b730" d="M178.37,83.1a5.88,5.88,0,0,1,.87,8.28,5.21,5.21,0,0,1-.92.9,5.88,5.88,0,0,1-8.24-8.3,6.29,6.29,0,0,1,.93-.93A5.91,5.91,0,0,1,178.37,83.1Z" class="color47b730 svgShape"></path><path fill="#3da025" d="M178.37,83.1a5.88,5.88,0,0,1,.87,8.28,5.21,5.21,0,0,1-.92.9A12.16,12.16,0,0,0,171,83.05,5.91,5.91,0,0,1,178.37,83.1Z" class="color3da025 svgShape"></path><path fill="#47b730" d="M199.8,85.81a5.88,5.88,0,0,1,.87,8.28,5.59,5.59,0,0,1-.91.91,5.89,5.89,0,0,1-8.25-8.31,6.27,6.27,0,0,1,.94-.92A5.88,5.88,0,0,1,199.8,85.81Z" class="color47b730 svgShape"></path><path fill="#3da025" d="M199.8,85.81a5.88,5.88,0,0,1,.87,8.28,5.59,5.59,0,0,1-.91.91,12.21,12.21,0,0,0-7.31-9.23A5.88,5.88,0,0,1,199.8,85.81Z" class="color3da025 svgShape"></path><path fill="#47b730" d="M189.57,252c-5-4.84-16.24-19-19-24l3.86-2.14c2.4,4.32,13.16,18.08,18.24,23Z" class="color47b730 svgShape"></path><path fill="#47b730" d="M177.81 237.59a68.22 68.22 0 01.72-10.44l4.36.71a64.74 64.74 0 00-.67 9.69zM188.61 245.68l-4.37-.57A83.89 83.89 0 01187.58 232l4.17 1.43A82.92 82.92 0 00188.61 245.68z" class="color47b730 svgShape"></path><path fill="#47b730" d="M179.4 239.69c-5.77-1.68-10.34-2.48-10.38-2.49l.75-4.35a110 110 0 0110.86 2.6zM173.84 247.78l-.47-4.39c.31 0 7.49-.77 13.07-.73l0 4.41C181.07 247 173.91 247.77 173.84 247.78zM239.21 208.29c1.35-6.85 7.18-23.92 9.89-29l3.89 2.09c-2.33 4.36-8.09 20.84-9.45 27.76z" class="color47b730 svgShape"></path><path fill="#47b730" d="M245 190.59a68.12 68.12 0 019.17-5l1.76 4a65 65 0 00-8.52 4.68zM244 204.05l-1.88-4A84.22 84.22 0 01255 195.8l1 4.28A82.35 82.35 0 00244 204.05z" class="color47b730 svgShape"></path><path fill="#47b730" d="M244.1 193.06A105.92 105.92 0 00240.58 183l4.06-1.72a104.43 104.43 0 013.69 10.55zM234.29 192.76l3.44-2.77c.19.24 4.69 5.89 7.68 10.6L241.68 203C238.83 198.44 234.33 192.81 234.29 192.76z" class="color47b730 svgShape"></path></g></g></svg></g></svg>