<svg width="160" height="160" viewBox="0 0 160 160" fill="none" xmlns="http://www.w3.org/2000/svg">
<path d="M117.232 42.448C117.272 42.2769 117.272 42.0991 117.232 41.928C117.008 41.128 116.648 41.768 116.624 42.16C116.6 42.552 116.944 43.2 117.232 42.448ZM54.56 61.04C54.56 62.2 54.464 68.456 54.712 72.968C53.552 71.048 52.632 67.976 51.896 66.968C51.8256 66.8463 51.7285 66.742 51.6122 66.6629C51.4959 66.5838 51.3632 66.5319 51.2241 66.5112C51.0849 66.4904 50.9429 66.5013 50.8086 66.543C50.6742 66.5847 50.551 66.6561 50.448 66.752C49.608 67.552 49.176 70.52 48.592 72.736C48.272 69.976 48.152 65.536 47.992 64.48C47.944 64.176 47.992 61.216 47.92 60.856C47.848 60.496 47.344 59.992 47.2 61.28C46.968 63.36 46.624 72.936 47.4 75.12C47.608 75.696 47.992 76.144 48.6 76.048C49.208 75.952 49.4 75.36 49.624 74.784C50.184 73.68 50.656 71.104 51.176 69.264C51.232 69.48 53.248 75.296 55 75.272C55.912 75.272 56.088 74.312 56.12 73.4C56.216 70.2 55.32 64.36 55.24 61.04C55.2275 60.9588 55.1864 60.8847 55.124 60.8312C55.0617 60.7777 54.9822 60.7483 54.9 60.7483C54.8179 60.7483 54.7384 60.7777 54.676 60.8312C54.6137 60.8847 54.5725 60.9588 54.56 61.04ZM60.616 72.88C60.56 71.376 60.568 69.68 60.616 68.144C61.2337 68.3092 61.8735 68.3767 62.512 68.344C65.216 68.344 66.808 67.304 63.8 66.696C62.7513 66.5543 61.6848 66.625 60.664 66.904C60.752 64.56 60.912 62.656 61 62.224C61.976 61.848 68.616 61.304 65.8 60.832C64.2464 60.6544 62.6796 60.6222 61.12 60.736C60.8483 60.7259 60.5778 60.7784 60.3296 60.8893C60.0813 61.0003 59.8618 61.1668 59.688 61.376C58.976 62.56 58.64 71.168 59.104 73.232C59.1299 73.4336 59.2009 73.6267 59.3117 73.7971C59.4225 73.9674 59.5703 74.1106 59.744 74.216C61.344 74.88 65.92 74.376 66.312 74.072C67.624 73.064 62.904 73.76 60.616 72.88ZM112.68 70.504C112.616 68.68 112.68 67.032 112.68 65.768C113.296 65.9298 113.932 65.9973 114.568 65.968C116.968 65.968 118.96 64.936 115.856 64.32C114.808 64.175 113.741 64.243 112.72 64.52C112.808 62.36 112.952 60.368 113.056 59.84C113.552 59.648 121.104 58.992 117.856 58.456C116.303 58.2758 114.736 58.241 113.176 58.352C112.904 58.3431 112.634 58.3961 112.386 58.507C112.138 58.6179 111.919 58.7837 111.744 58.992C111.04 60.16 110.688 68.752 111.16 70.856C111.187 71.0572 111.258 71.2499 111.369 71.4201C111.48 71.5903 111.627 71.7338 111.8 71.84C113.4 72.496 117.976 72 118.368 71.688C119.688 70.68 114.984 71.376 112.68 70.504ZM75.856 72.936C74.832 72.832 71.664 72.88 70.256 72.664C70.056 68.48 70.384 68.664 69.584 61.112C69.5714 61.0288 69.5293 60.9528 69.4655 60.898C69.4016 60.8431 69.3202 60.8129 69.236 60.8129C69.1518 60.8129 69.0704 60.8431 69.0066 60.898C68.9428 60.9528 68.9007 61.0288 68.888 61.112C68.437 65.0526 68.3326 69.0252 68.576 72.984C68.5595 73.1754 68.5911 73.3678 68.668 73.5439C68.7448 73.72 68.8645 73.874 69.016 73.992C70.496 74.888 74.528 73.76 75.84 73.624C75.9313 73.6261 76.0196 73.5919 76.0856 73.5289C76.1516 73.4659 76.1899 73.3792 76.192 73.288C76.1942 73.1968 76.1599 73.1084 76.0969 73.0424C76.0339 72.9764 75.9473 72.9381 75.856 72.936ZM85.712 72.088C84.112 73.344 80.72 72.672 79.848 71.072C78.8223 69.2368 78.5362 67.0791 79.048 65.04C79.384 63.44 79.936 61.76 81.504 61.296C82.6383 60.9503 83.8498 60.9503 84.984 61.296C85.104 61.296 85.536 60.848 85.04 60.592C83.8402 60.0606 82.5165 59.8723 81.216 60.048C78.896 60.448 78.016 62.384 77.416 64.64C77.0799 65.8557 76.9938 67.1269 77.1629 68.3768C77.332 69.6267 77.7529 70.8294 78.4 71.912C80.056 74.552 84.424 74.456 86.16 72.592C86.2041 72.5664 86.2419 72.5313 86.2707 72.4892C86.2995 72.4472 86.3187 72.3993 86.3267 72.349C86.3348 72.2987 86.3315 72.2472 86.3173 72.1983C86.303 72.1494 86.278 72.1042 86.2441 72.0661C86.2103 72.028 86.1684 71.9979 86.1215 71.978C86.0746 71.9581 86.0238 71.9489 85.9729 71.951C85.922 71.953 85.8722 71.9664 85.827 71.9901C85.7819 72.0138 85.7426 72.0473 85.712 72.088ZM93.272 59.848C87.424 59.848 85.272 73.952 93.016 73.448C97.816 73.088 98.776 66.864 96.968 62.368C96.6342 61.6554 96.1151 61.0455 95.4649 60.6022C94.8147 60.1589 94.0574 59.8984 93.272 59.848ZM92.888 71.792C91.24 71.952 90.288 70.992 89.784 69.6C88.536 66.256 89.616 60.592 93.2 61.008C93.7243 61.0938 94.2163 61.3176 94.6254 61.6564C95.0345 61.9952 95.3461 62.4369 95.528 62.936C96.688 66.232 96.368 71.504 92.888 71.792ZM106.496 58.024C105.208 58.304 104.432 60.296 103.968 61.528C103.168 60.104 101.8 57.712 100.408 58.536C100.14 58.7129 99.9401 58.9751 99.84 59.28C98.984 61.616 99.512 70.432 99.84 72.384C99.8517 72.4752 99.8991 72.5581 99.9719 72.6144C100.045 72.6706 100.137 72.6957 100.228 72.684C100.319 72.6723 100.402 72.6249 100.458 72.5521C100.515 72.4794 100.54 72.3872 100.528 72.296C100.384 70.896 100.728 65.528 100.856 63.664C100.912 62.5596 101.029 61.4592 101.208 60.368C101.912 61.3306 102.525 62.3563 103.04 63.432C103.696 64.624 104.456 64.472 104.8 63.952C105.144 63.432 105.752 61.304 106.4 60.24C106.92 62.304 108.152 70.352 108.216 71.68C108.229 71.7612 108.27 71.8353 108.332 71.8888C108.394 71.9423 108.474 71.9717 108.556 71.9717C108.638 71.9717 108.718 71.9423 108.78 71.8888C108.842 71.8353 108.884 71.7612 108.896 71.68C108.896 69.584 108.616 60.4 107.592 58.592C107.503 58.3855 107.345 58.2162 107.145 58.1127C106.946 58.0092 106.716 57.9779 106.496 58.024ZM68.32 34.808C68.3503 34.8818 68.3971 34.9476 68.4568 35.0004C68.5165 35.0532 68.5876 35.0915 68.6645 35.1125C68.7414 35.1334 68.8221 35.1364 68.9004 35.1212C68.9786 35.106 69.0524 35.073 69.1158 35.0248C69.1793 34.9765 69.2308 34.9144 69.2664 34.843C69.302 34.7717 69.3208 34.6931 69.3212 34.6134C69.3216 34.5337 69.3036 34.455 69.2688 34.3833C69.2339 34.3116 69.183 34.2489 69.12 34.2C68.64 33.52 68.056 33 67.664 32.392C67.5886 32.2766 67.4711 32.1953 67.3366 32.1654C67.2021 32.1355 67.0612 32.1594 66.944 32.232C66.8867 32.2693 66.8374 32.3175 66.7987 32.3738C66.7601 32.4302 66.7329 32.4936 66.7188 32.5605C66.7047 32.6274 66.7039 32.6964 66.7164 32.7635C66.729 32.8307 66.7547 32.8948 66.792 32.952C67.296 33.68 67.856 34.152 68.32 34.808ZM18.4 25.088C18.4303 25.1618 18.4771 25.2276 18.5368 25.2804C18.5965 25.3332 18.6676 25.3715 18.7445 25.3925C18.8214 25.4134 18.9021 25.4164 18.9804 25.4012C19.0586 25.386 19.1324 25.353 19.1958 25.3048C19.2593 25.2565 19.3108 25.1944 19.3464 25.123C19.382 25.0517 19.4008 24.9731 19.4012 24.8934C19.4016 24.8137 19.3837 24.735 19.3488 24.6633C19.3139 24.5916 19.263 24.5289 19.2 24.48C18.72 23.808 18.136 23.28 17.744 22.672C17.7104 22.6084 17.6639 22.5525 17.6075 22.5078C17.5511 22.4631 17.486 22.4306 17.4164 22.4123C17.3468 22.394 17.2741 22.3904 17.2031 22.4017C17.132 22.413 17.064 22.4389 17.0035 22.4777C16.9429 22.5166 16.8911 22.5677 16.8513 22.6276C16.8115 22.6876 16.7845 22.7551 16.7722 22.826C16.7598 22.8969 16.7623 22.9696 16.7795 23.0395C16.7967 23.1094 16.8282 23.1749 16.872 23.232C17.352 24 17.912 24.432 18.4 25.088ZM83.064 29.816C83.568 29.816 83.496 29.4 84.456 27.968C84.5326 27.8521 84.5605 27.7107 84.5335 27.5744C84.5065 27.4382 84.427 27.318 84.312 27.24C84.1974 27.1638 84.0572 27.1362 83.9223 27.1632C83.7873 27.1902 83.6686 27.2696 83.592 27.384C83.128 28.08 82.744 28.816 82.632 28.984C82.5732 29.0623 82.5377 29.1557 82.5296 29.2534C82.5215 29.351 82.5412 29.4489 82.5863 29.5359C82.6315 29.6228 82.7003 29.6953 82.7848 29.7448C82.8693 29.7944 82.9661 29.8191 83.064 29.816ZM64.912 9.232V7.232C64.9153 7.1637 64.905 7.09543 64.8818 7.0311C64.8586 6.96677 64.8229 6.90765 64.7769 6.85712C64.7308 6.80659 64.6752 6.76564 64.6133 6.73662C64.5514 6.7076 64.4843 6.69108 64.416 6.688C64.2786 6.68359 64.1449 6.73294 64.0433 6.82556C63.9417 6.91818 63.8803 7.04677 63.872 7.184V9.072C63.8508 9.20991 63.8853 9.35061 63.9678 9.46313C64.0503 9.57565 64.1741 9.65078 64.312 9.672C64.4499 9.69322 64.5906 9.65878 64.7032 9.57626C64.8157 9.49375 64.8908 9.36991 64.912 9.232ZM39.792 6.4C39.8114 6.51492 39.8689 6.62 39.9551 6.69837C40.0414 6.77674 40.1515 6.82385 40.2677 6.83216C40.384 6.84046 40.4997 6.80947 40.5962 6.74416C40.6927 6.67885 40.7645 6.583 40.8 6.472C40.8 6.472 40.6 4.872 40.576 4.488C40.5659 4.35501 40.5059 4.23077 40.4079 4.14025C40.31 4.04972 40.1814 3.99962 40.048 4C39.9797 4.00408 39.9129 4.0216 39.8513 4.05157C39.7898 4.08155 39.7347 4.12338 39.6894 4.17466C39.6441 4.22595 39.6093 4.28568 39.5871 4.35043C39.5649 4.41519 39.5557 4.48368 39.56 4.552C39.616 5.384 39.768 6.272 39.792 6.4ZM103.896 14.176C103.958 14.3001 104.066 14.3947 104.197 14.439C104.328 14.4832 104.472 14.4735 104.596 14.412C104.72 14.3505 104.815 14.2422 104.859 14.1109C104.903 13.9796 104.894 13.8361 104.832 13.712C104.656 13.368 104.408 12.832 104.144 12.256C103.12 10.024 103.096 9.984 102.744 9.928C102.632 9.90829 102.517 9.92577 102.416 9.97776C102.315 10.0298 102.234 10.1134 102.185 10.2159C102.136 10.3184 102.122 10.4341 102.145 10.5454C102.168 10.6567 102.226 10.7573 102.312 10.832C102.56 11.248 103.584 13.552 103.896 14.176ZM136.968 22.136C137.408 22.52 142.12 23.28 142.688 23.064C142.783 23.0307 142.868 22.9722 142.933 22.8947C142.997 22.8172 143.04 22.7237 143.056 22.624C143.12 22.16 142.488 20.552 141.176 17.824C141.148 17.7332 141.097 17.6514 141.027 17.587C140.957 17.5227 140.871 17.478 140.778 17.4577C140.686 17.4373 140.589 17.442 140.499 17.4712C140.408 17.5005 140.327 17.5532 140.264 17.624C137.064 21.368 136.768 21.464 136.784 21.76C136.784 21.8325 136.801 21.904 136.833 21.9691C136.865 22.0342 136.911 22.0913 136.968 22.136ZM140.528 18.936C141.104 20.152 141.656 21.416 141.896 22.096C141.008 22.016 139.224 21.72 138.232 21.504L140.528 18.936ZM6.82404 30.448C6.76388 30.3745 6.68526 30.3182 6.59621 30.2851C6.50717 30.2519 6.41092 30.243 6.3173 30.2593C6.22369 30.2756 6.13609 30.3164 6.06347 30.3777C5.99086 30.439 5.93583 30.5185 5.90404 30.608C4.30404 35.08 4.10404 35.472 4.24804 35.752C4.29211 35.8461 4.36419 35.9243 4.45441 35.9758C4.54464 36.0274 4.64859 36.0498 4.75204 36.04C5.80804 36.04 9.78404 35.096 10.2 34.712C10.2741 34.6446 10.3288 34.5586 10.3583 34.4629C10.3879 34.3673 10.3912 34.2654 10.368 34.168C10.256 33.712 9.06404 32.464 6.82404 30.448ZM5.47204 34.92C5.78404 34.032 6.27204 32.568 6.62404 31.72C7.61604 32.624 8.60004 33.584 9.08804 34.12C8.23204 34.352 6.47204 34.744 5.47204 34.92ZM152.224 52.656C151.316 52.4802 150.418 52.2532 149.536 51.976C149.406 51.9329 149.263 51.9432 149.14 52.0047C149.017 52.0661 148.924 52.1737 148.88 52.304C148.837 52.4356 148.847 52.5789 148.908 52.7031C148.969 52.8274 149.077 52.9225 149.208 52.968C150.161 53.2735 151.134 53.5115 152.12 53.68C152.245 53.6747 152.364 53.6246 152.455 53.5388C152.546 53.453 152.603 53.3374 152.615 53.213C152.628 53.0887 152.595 52.9639 152.523 52.8616C152.452 52.7593 152.345 52.6863 152.224 52.656ZM155.72 33.536C155.686 33.4765 155.641 33.4243 155.586 33.3824C155.532 33.3406 155.47 33.3098 155.404 33.292C155.338 33.2741 155.269 33.2695 155.201 33.2785C155.133 33.2874 155.067 33.3097 155.008 33.344C154.44 33.672 153.504 34.256 152.608 34.848C152.515 34.91 152.445 35.0001 152.408 35.1049C152.37 35.2098 152.367 35.324 152.4 35.4306C152.432 35.5372 152.498 35.6306 152.587 35.6971C152.676 35.7636 152.785 35.7997 152.896 35.8C153.248 35.8 153.368 35.488 155.528 34.248C155.588 34.214 155.64 34.1686 155.682 34.1143C155.723 34.0601 155.754 33.9981 155.772 33.9319C155.79 33.8658 155.794 33.7967 155.786 33.7288C155.777 33.6608 155.754 33.5953 155.72 33.536ZM71.28 19.512C71.3252 19.5953 71.3924 19.6647 71.4741 19.7126C71.5559 19.7606 71.6492 19.7853 71.744 19.784C71.888 19.784 71.576 19.896 76.464 17.864C76.5307 17.8366 76.591 17.7956 76.641 17.7436C76.691 17.6916 76.7296 17.6298 76.7545 17.5621C76.7793 17.4944 76.7898 17.4222 76.7852 17.3503C76.7807 17.2783 76.7612 17.208 76.728 17.144L74.712 13.256C74.6557 13.1479 74.5631 13.063 74.4505 13.0162C74.3379 12.9694 74.2124 12.9637 74.096 13C73.128 13.312 69.936 14.36 69.296 14.92C69.2068 14.9958 69.1462 15.0998 69.1244 15.2148C69.1026 15.3298 69.1208 15.4488 69.176 15.552L71.28 19.512ZM73.992 14.128L75.544 17.12L72 18.608L70.4 15.496C71.5736 14.9799 72.7725 14.5234 73.992 14.128ZM28.392 18.112C32.32 18.112 31.744 12.88 28.504 12.88C28.0072 12.8985 27.5261 13.0591 27.1178 13.3426C26.7094 13.6262 26.3909 14.0209 26.2 14.48C25.9995 14.8574 25.9002 15.2803 25.9119 15.7074C25.9235 16.1346 26.0457 16.5515 26.2665 16.9173C26.4873 17.2832 26.7992 17.5856 27.1717 17.795C27.5443 18.0043 27.9647 18.1136 28.392 18.112ZM28.52 13.92C30.216 13.92 30.832 16.592 28.944 17.008C26.4 17.6 26.488 14.096 28.52 13.92Z" fill="#FF3300"/>
<path d="M114.856 22.424C114.856 22.28 114.944 21.88 114.944 21.76C114.939 21.6959 114.954 21.6319 114.987 21.5767C115.02 21.5215 115.069 21.4778 115.128 21.4515C115.186 21.4252 115.252 21.4177 115.315 21.43C115.378 21.4423 115.435 21.4737 115.48 21.52C115.592 21.64 115.576 21.728 115.52 22.104C115.48 22.232 115.48 22.3679 115.48 22.424V22.424C115.48 22.5068 115.447 22.5861 115.389 22.6446C115.33 22.7031 115.251 22.736 115.168 22.736C115.085 22.736 115.006 22.7031 114.947 22.6446C114.889 22.5861 114.856 22.5068 114.856 22.424Z" fill="#012A38"/>
<path d="M117.698 25.3933C117.679 25.3973 117.659 25.3969 117.64 25.392C117.163 25.4482 116.679 25.3648 116.248 25.152C116.104 25 116.192 24.56 116.248 24.2C116.377 23.1707 116.622 22.1591 116.976 21.184C116.992 21.064 117.232 20.88 117.232 21.184C117.184 22.3999 117.018 23.6083 116.736 24.792C117.023 24.9422 117.327 25.0602 117.64 25.144C117.659 25.1392 117.679 25.1387 117.698 25.1427C117.717 25.1467 117.735 25.1549 117.75 25.1669C117.766 25.1789 117.778 25.1942 117.787 25.2117C117.795 25.2292 117.8 25.2485 117.8 25.268C117.8 25.2875 117.795 25.3068 117.787 25.3243C117.778 25.3418 117.766 25.3572 117.75 25.3691C117.735 25.3811 117.717 25.3894 117.698 25.3933Z" fill="#012A38"/>
<path d="M119.624 22.728V22.728C119.617 22.8108 119.577 22.8872 119.513 22.9404C119.449 22.9937 119.367 23.0194 119.284 23.012C119.201 23.0046 119.125 22.9646 119.072 22.9008C119.018 22.8371 118.993 22.7548 119 22.672C119 22.512 119.056 22.104 119.056 21.872C119.073 21.7983 119.116 21.7331 119.177 21.6887C119.238 21.6442 119.313 21.6235 119.388 21.6303C119.464 21.6372 119.534 21.6711 119.586 21.7259C119.638 21.7806 119.669 21.8525 119.672 21.928C119.624 22.208 119.624 22.584 119.624 22.728Z" fill="#012A38"/>
<path d="M117.201 26.4885C117.227 26.4727 117.258 26.4669 117.288 26.472C117.745 26.353 118.174 26.1465 118.552 25.864C118.557 25.8488 118.564 25.8346 118.575 25.8224C118.585 25.8101 118.597 25.8 118.611 25.7925C118.625 25.7851 118.641 25.7805 118.657 25.7791C118.673 25.7776 118.689 25.7793 118.704 25.784C118.719 25.7887 118.733 25.7964 118.746 25.8066C118.758 25.8168 118.768 25.8293 118.775 25.8434C118.783 25.8576 118.787 25.873 118.789 25.8889C118.79 25.9048 118.789 25.9208 118.784 25.936C118.789 26.1198 118.739 26.301 118.64 26.456C118.535 26.6032 118.395 26.7216 118.232 26.8C118.073 26.8922 117.889 26.9332 117.706 26.9174C117.523 26.9017 117.349 26.83 117.208 26.712C117.181 26.698 117.16 26.6748 117.148 26.6465C117.136 26.6182 117.135 26.5867 117.145 26.5577C117.155 26.5287 117.174 26.5042 117.201 26.4885Z" fill="#012A38"/>
<path d="M51.7041 21.744V22.464C51.7041 22.5468 51.6712 22.6261 51.6127 22.6846C51.5542 22.7431 51.4748 22.776 51.3921 22.776C51.3093 22.776 51.23 22.7431 51.1715 22.6846C51.113 22.6261 51.0801 22.5468 51.0801 22.464V21.704C51.0854 21.6213 51.1234 21.544 51.1856 21.4893C51.2479 21.4345 51.3293 21.4067 51.4121 21.412C51.4948 21.4173 51.5721 21.4553 51.6269 21.5175C51.6816 21.5798 51.7094 21.6613 51.7041 21.744Z" fill="#012A38"/>
<path d="M56.1355 22.5325C56.1262 22.4888 56.1264 22.4436 56.1361 22.4C56.1681 21.96 56.0001 21.52 56.4001 21.504C56.4457 21.498 56.492 21.5022 56.5358 21.5162C56.5796 21.5302 56.6197 21.5538 56.6533 21.5851C56.687 21.6164 56.7133 21.6548 56.7303 21.6975C56.7474 21.7402 56.7548 21.7861 56.7521 21.832C56.7642 22.0372 56.7642 22.2429 56.7521 22.448C56.7549 22.4926 56.7481 22.5372 56.7321 22.579C56.7162 22.6207 56.6914 22.6585 56.6596 22.6898C56.6278 22.7211 56.5896 22.7453 56.5477 22.7606C56.5057 22.7759 56.461 22.782 56.4165 22.7786C56.3719 22.7751 56.3287 22.7621 56.2896 22.7405C56.2505 22.7189 56.2166 22.6891 56.19 22.6532C56.1634 22.6173 56.1448 22.5762 56.1355 22.5325Z" fill="#012A38"/>
<path d="M54.4321 23.88C54.4481 24.4 54.3761 25.472 53.9281 25.664C53.3361 25.912 52.4961 25.28 52.6881 25.08C52.7119 25.0575 52.7434 25.045 52.7761 25.045C52.8088 25.045 52.8403 25.0575 52.8641 25.08C53.8561 25.688 53.7521 24.88 53.8561 23.824C53.9007 23.4755 53.9702 23.1306 54.0641 22.792C54.0593 22.7731 54.0588 22.7534 54.0628 22.7342C54.0667 22.7151 54.075 22.6972 54.087 22.6818C54.0989 22.6664 54.1143 22.6539 54.1318 22.6453C54.1493 22.6367 54.1686 22.6323 54.1881 22.6323C54.2076 22.6323 54.2269 22.6367 54.2444 22.6453C54.2619 22.6539 54.2772 22.6664 54.2892 22.6818C54.3012 22.6972 54.3095 22.7151 54.3134 22.7342C54.3174 22.7534 54.3169 22.7731 54.3121 22.792C54.3728 23.1521 54.4128 23.5154 54.4321 23.88Z" fill="#012A38"/>
<path d="M51.489 27.696C51.2787 27.5824 51.1061 27.41 50.9921 27.2C50.9029 26.9962 50.8645 26.7739 50.8801 26.552C50.8796 26.5235 50.8887 26.4956 50.906 26.4728C50.9232 26.45 50.9475 26.4336 50.9751 26.4263C51.0027 26.4189 51.0319 26.421 51.0582 26.4322C51.0845 26.4434 51.1063 26.463 51.1201 26.488C51.2974 26.7494 51.5227 26.9747 51.7841 27.152C52.0856 27.2637 52.4001 27.3363 52.7201 27.368C52.753 27.3595 52.7879 27.3645 52.8171 27.3817C52.8464 27.399 52.8676 27.4271 52.8761 27.46C52.8846 27.4929 52.8797 27.5278 52.8624 27.5571C52.8452 27.5863 52.817 27.6075 52.7841 27.616C52.5977 27.7291 52.3913 27.8051 52.1761 27.84C51.9379 27.8597 51.6992 27.8096 51.489 27.696Z" fill="#012A38"/>
<path d="M144.888 42.4C143.871 41.2551 142.772 40.1856 141.6 39.2C142.024 38.912 142.04 38.792 141.936 38.544C140.52 35.344 132.672 29.96 122.328 29.92V28.184L122.728 27.888C123.056 28.1251 123.414 28.3187 123.792 28.464C125.12 28.624 126.024 27.736 127.272 27.664C127.94 27.6303 128.606 27.5528 129.264 27.432C130.216 27.232 130.864 27 131.104 26.104C131.182 25.645 131.164 25.1749 131.051 24.7233C130.938 24.2716 130.733 23.8483 130.448 23.48C129.408 21.88 128.328 21.304 127.968 19.976C127.696 18.976 127.968 18.624 127.736 17.456C127.584 16.752 127.464 16.656 126.52 15.68C125.232 14.392 124.528 12.8 122.608 12.072C121.68 11.728 120.208 12.136 119.216 12.384C118.563 12.2013 117.884 12.131 117.208 12.176C116.393 12.2495 115.633 12.6196 115.072 13.216C114.616 13.745 114.124 14.2422 113.6 14.704C112.8 15.32 111.28 15.56 110.896 16.72C110.736 17.2 110.784 17.712 110.624 18.128C110.272 19.072 109.584 19.904 109.432 20.976C109.24 22.328 110.392 23.616 109.624 24.576C109.264 25.032 108.656 25.296 108.248 25.872C108.101 26.0487 107.992 26.2531 107.926 26.473C107.86 26.6929 107.839 26.9238 107.864 27.152C108.112 27.888 108.744 28.56 109.464 28.416C110.96 28.128 111.616 29.664 113.944 27.96C114.593 28.517 115.35 28.9338 116.168 29.184C115.968 29.632 115.832 29.92 115.744 30.112C114.504 30.208 113.896 30.272 112.8 30.4C112.754 30.4035 112.709 30.4185 112.67 30.4437C112.631 30.4688 112.598 30.5033 112.576 30.544C108.613 30.9787 104.686 31.6924 100.824 32.68C100.782 32.6896 100.746 32.7148 100.722 32.7505C100.698 32.7862 100.689 32.8297 100.696 32.872L100.808 33.856C100.542 33.8704 100.274 33.8704 100.008 33.856C99.592 31.376 95.144 24.184 93.664 22.28C93.96 21.664 94.688 20.072 94.464 19.424C94.36 19.064 93.936 18.872 93.416 19.24C93.1916 19.4165 92.9853 19.6148 92.8 19.832C92.5795 19.0233 92.2932 18.234 91.944 17.472C91.776 17.168 91.528 16.816 91.144 16.832C90.56 16.832 90.344 17.336 90.344 17.92C90.064 17.536 89.648 17.072 89.216 17.288C88.784 17.504 88.744 18.088 88.864 18.64C88.384 18.24 87.76 17.952 87.384 18.424C86.376 19.696 89.128 22.272 90.352 23.336C90.4 26.904 90.704 36.136 91.872 39.544C92.3101 40.9042 92.9203 42.2027 93.688 43.408C84.088 43.456 73.584 43.624 64.416 43.88C62.816 38.656 59.992 35.432 55.752 33.2C55.7691 33.145 55.7715 33.0865 55.7589 33.0303C55.7462 32.9742 55.719 32.9223 55.68 32.88C54.6629 32.2165 53.5926 31.6385 52.48 31.152C52.432 30.992 52.376 30.792 52.32 30.52C53.0637 30.4823 53.7872 30.2645 54.4282 29.8855C55.0692 29.5065 55.6086 28.9775 56 28.344C57.488 25.704 58.112 22.248 58.464 19.152C58.5055 19.1265 58.5402 19.0913 58.5653 19.0496C58.5903 19.0078 58.605 18.9606 58.608 18.912C58.768 17.048 58.208 14.464 56.776 13.24C54.592 11.376 51.056 10.04 48.352 10.744C46.431 11.1043 44.6917 12.1124 43.424 13.6C42.2971 15.1813 41.6904 17.0742 41.688 19.016C41.488 22.88 43.512 24.024 44.496 25.416C44.1611 26.6469 43.6999 27.8398 43.12 28.976C42.976 28.68 40.512 28.632 40.184 28.664C39.856 28.696 39.872 28.776 39.88 28.928C31.52 28.8 20.944 32.488 14.912 40.752C13.435 42.6543 12.3476 44.8291 11.712 47.152C10.064 55.312 13.248 58.672 18.648 59.016C24.68 59.392 32.176 54.128 37.528 49.984L38.632 44.472C33.544 43.256 27.08 43.616 22.288 46.576C22.2551 46.5972 22.2151 46.6045 22.1769 46.5962C22.1386 46.588 22.1052 46.5649 22.084 46.532C22.0628 46.4991 22.0555 46.4591 22.0638 46.4209C22.072 46.3826 22.0951 46.3492 22.128 46.328C23.7382 45.2224 25.5311 44.4099 27.424 43.928C27.6364 42.8696 27.9034 41.8228 28.224 40.792C28.496 40.136 28.768 39.992 28.688 40.848C28.688 40.984 28.248 43.648 28.216 43.728C28.9336 43.5393 29.6633 43.4003 30.4 43.312C33.3398 42.9396 36.3232 43.1131 39.2 43.824C39.2877 43.8484 39.3631 43.9045 39.4119 43.9813C39.4607 44.0581 39.4792 44.1503 39.464 44.24C39.464 44.24 39.384 44.648 39.384 44.672C40.056 44.4 40.752 44.12 40.896 44.072C41.536 43.864 42.216 44.872 42.72 45.288C43.1048 45.6161 43.4226 46.0154 43.656 46.464C43.752 46.696 43.656 46.776 43.392 46.64C43.032 46.448 42.592 45.952 42.304 45.84C42.2455 45.8224 42.1832 45.8224 42.1246 45.8399C42.0661 45.8575 42.0141 45.8918 41.9749 45.9386C41.9357 45.9855 41.9111 46.0428 41.9042 46.1035C41.8973 46.1642 41.9084 46.2255 41.936 46.28C41.936 46.36 43.664 48.608 42.376 47.696C42.0308 47.4017 41.7146 47.0749 41.432 46.72C41.3949 46.6813 41.3483 46.6532 41.2968 46.6383C41.2453 46.6235 41.1909 46.6225 41.1389 46.6355C41.0869 46.6485 41.0393 46.675 41.0009 46.7123C40.9624 46.7496 40.9345 46.7964 40.92 46.848C40.9083 46.9157 40.9116 46.9852 40.9296 47.0515C40.9475 47.1178 40.9798 47.1794 41.024 47.232C41.096 47.344 42.056 48.72 41.912 49.056C41.608 49.792 40.376 48.024 40.096 48.112C39.5696 48.2888 39.0563 48.5027 38.56 48.752C38.272 50.192 38.24 50.352 38.128 50.44C34.4 53.384 28.528 57.08 23.632 58.728C22.68 61.72 22.112 64.616 23.224 65.312C23.7938 65.6561 24.4283 65.8794 25.088 65.968C22.488 78.304 21.952 144.8 23.008 146.288C23.0457 146.345 23.099 146.389 23.1615 146.416C23.224 146.443 23.2929 146.451 23.36 146.44C22.56 148.84 21.8 151.824 22.16 153.152C22.1614 153.39 22.1774 153.628 22.208 153.864C22.2089 154.161 22.2822 154.453 22.4216 154.715C22.561 154.977 22.7623 155.201 23.008 155.368C23.7105 155.771 24.5062 155.983 25.316 155.983C26.1258 155.983 26.9215 155.771 27.624 155.368C29.968 153.728 31.752 148.896 32.336 146.296C33.776 146.296 42.168 99.56 42.544 97.496C43.112 100.048 52.608 142.856 53.528 145.152C53.624 145.376 53.752 145.424 54 145.536C54.0501 147.094 54.2024 148.646 54.456 150.184C54.576 150.64 55.256 150.84 55.744 150.944C58.672 151.608 68.152 151.424 69.664 150.144C70.272 149.616 70.056 147.744 69.664 147.488C67.904 145.68 62.696 146 62.072 145.376C62.0283 145.224 61.9988 145.069 61.984 144.912C62.16 144.824 62.336 144.744 62.488 144.648C62.64 144.552 62.792 144.224 62.696 140.464C62.496 132.16 61.48 112.544 60.408 95.52C71.952 95.448 86.48 94.92 98.688 94.16C97.192 104.4 96.04 113.152 96.232 114.464C96.48 116.184 102.04 116.992 103.8 117.264C103.336 127.664 102.544 145.528 102.536 145.584C102.536 146.072 101.968 146.08 99.408 148.176C98.52 148.888 97.008 150.184 97.208 151.072C97.76 153.24 105.16 149.832 107.12 148.792C107.264 149.792 106.792 150.712 107.92 150.608C108.273 150.564 108.618 150.47 108.944 150.328C109.16 150.208 109.24 149.776 109.496 148.472C110.896 141.2 113.232 125.688 114.296 118.32C117.184 118.504 120.168 118.616 123.04 118.648C124.104 129.048 125.752 144.952 125.784 145.488C124.784 146.728 120.56 150.352 121.36 151.712C122.368 153.552 129.088 148.896 130.76 147.608C131.04 148.528 130.704 149.56 131.816 149.256C132.155 149.147 132.478 148.994 132.776 148.8C132.96 148.656 132.976 148.232 133.04 146.888C133.264 141.608 133.408 128.296 133.352 118.328C136.552 118.04 138.848 117.528 139.56 116.792C141.008 115.288 135.16 75.192 134.392 51.6C137.296 52.6 140.904 53.488 143.76 52.048C146.848 50.472 148.248 47.016 144.888 42.4ZM141.304 38.64C140.432 39.224 133.448 43.072 133.432 43.088C132.768 42.8 132.176 42.544 131.632 42.328C134.132 40.2339 136.809 38.3602 139.632 36.728C140.263 37.2995 140.825 37.944 141.304 38.648V38.64ZM126.568 30.728C131.321 31.3355 135.781 33.3593 139.368 36.536C136.35 38.0448 133.52 39.9028 130.936 42.072C127.632 40.84 126.344 41 123.288 41.496C121.128 41.848 120.44 42.2 119.424 43.736H118.792C118.854 42.4024 118.827 41.0661 118.712 39.736C118.864 39.68 122.768 36.16 123.4 35.456C123.864 34.944 123.496 34.864 122.64 34.144C123.976 34.144 124.072 34.264 124.24 34.064C125.216 32.656 125.6 32.176 126.568 30.736V30.728ZM119.32 38.4C119.752 37.344 120.4 35.552 120.976 33.928L121.728 34C122.067 34.4183 122.463 34.7872 122.904 35.096C122.744 35.2 122.76 35.312 119.32 38.4ZM125.832 30.712C123.936 33.496 124.296 32.976 123.872 33.56C123.238 33.512 122.602 33.512 121.968 33.56C121.898 33.5768 121.834 33.6128 121.784 33.664H121.072C121.6 32.184 122.048 30.896 122.224 30.464C123.088 30.496 124.56 30.576 125.832 30.704V30.712ZM114.552 27.744C112.848 26.144 113.28 22.376 113.672 20.072C116.288 19.272 116.256 18.472 117.384 16.928C118.024 18.088 120.64 20.776 122.056 21.352C121.879 21.6258 121.771 21.9381 121.741 22.2625C121.71 22.5869 121.758 22.914 121.88 23.216C122.304 24.176 121.224 24.44 121.76 25.336C121.838 25.5024 121.879 25.6841 121.879 25.868C121.879 26.0519 121.838 26.2336 121.76 26.4C121.685 26.6098 121.687 26.8394 121.767 27.0477C121.846 27.2559 121.997 27.429 122.192 27.536C121.992 27.672 121.712 27.848 121.712 28.088V30.136C121.712 30.136 118.944 37.2 118.664 38.064C118 35.776 116.496 31.024 116.264 30.424L116.832 29.144C116.85 29.1077 116.86 29.0679 116.861 29.0273C116.862 28.9868 116.855 28.9465 116.839 28.9092C116.823 28.8719 116.799 28.8385 116.769 28.8114C116.738 28.7843 116.703 28.764 116.664 28.752C115.924 28.4944 115.215 28.1535 114.552 27.736V27.744ZM118.048 38.632L114.544 36.864C114.704 36.392 115.344 34.528 115.344 34.352C115.712 34.28 116.248 34.128 116.632 34.04C117.144 35.744 117.72 37.656 118.048 38.624V38.632ZM115.648 30.752C115.952 31.784 116.016 32.176 116.504 33.648C116.128 33.776 115.704 33.936 115.248 34.088C115.154 33.9959 115.028 33.9442 114.896 33.944C114.386 33.9622 113.879 34.0346 113.384 34.16C113.296 33.192 113.32 33.656 113.176 30.96C113.992 30.888 114.856 30.808 115.664 30.744L115.648 30.752ZM112.568 30.936C112.568 31.344 112.68 32.256 112.736 33.08C112.856 34.752 112.856 34.68 112.952 34.752C112.987 34.7758 113.026 34.7923 113.067 34.8005C113.108 34.8088 113.151 34.8086 113.192 34.8C113.674 34.6874 114.163 34.6045 114.656 34.552C114.424 35.264 113.856 36.952 113.856 36.952C113.832 37.0225 113.835 37.0991 113.863 37.1681C113.89 37.237 113.942 37.2937 114.008 37.328L118.32 39.48C118.416 40.736 118.16 41.456 118.192 43.728C118.512 43.728 114.832 43.56 107.304 43.488C107.496 41.52 107.496 40.496 107.56 39.704C107.561 39.6737 107.551 39.644 107.532 39.6203C107.513 39.5967 107.486 39.5805 107.456 39.5747C107.427 39.569 107.396 39.574 107.369 39.5889C107.343 39.6037 107.323 39.6275 107.312 39.656C106.969 40.9056 106.755 42.1869 106.672 43.48H105.36C104.704 39.344 103.696 33.352 103.544 32.424C106.328 31.784 109.432 31.28 112.584 30.928L112.568 30.936ZM103.2 32.44C103.408 32.44 103.136 32.088 103.864 37.24C103.928 37.696 104.392 40.816 104.768 43.424H102.672C102.344 41.112 101.872 37.824 101.072 32.984C101.6 32.84 102.44 32.624 103.2 32.44ZM92.56 39.384C91.448 36.104 91.16 26.672 91.12 23.208C91.1133 23.1193 91.0733 23.0364 91.008 22.976C90.208 22.304 87.368 19.648 88.016 18.832C88.16 18.64 89.304 19.672 89.696 20.432C90.336 21.544 91.048 21.752 90.248 20.152C90.048 19.752 89.312 18.256 89.6 17.912C90.1593 18.5145 90.6088 19.2104 90.928 19.968C90.9588 20.0412 91.0173 20.0992 91.0909 20.1292C91.1644 20.1592 91.2468 20.1588 91.32 20.128C91.3932 20.0972 91.4512 20.0386 91.4812 19.9651C91.5112 19.8916 91.5108 19.8092 91.48 19.736C91.48 19.816 90.912 18.248 91.128 17.616C91.128 17.544 91.192 17.488 91.264 17.48C91.728 17.896 92.176 19.544 92.408 20.296C92.784 21.472 93.448 19.816 94.008 19.664C93.9976 20.0635 93.9107 20.4572 93.752 20.824C93.256 22.216 92.952 22.312 93.184 22.552C94.504 24.096 99.416 31.832 99.72 34.072C99.72 34.232 99.896 34.256 100.056 34.264C100.322 34.2789 100.59 34.2789 100.856 34.264C101.072 36.128 101.496 39.704 102.016 43.488H94.456C93.6267 42.2212 92.9904 40.838 92.568 39.384H92.56ZM52.704 31.832C52.984 31.968 54.416 32.736 55.104 33.144C55.52 32.8 50.416 37.144 50.152 37.32C49.741 36.6572 49.3645 35.9736 49.024 35.272C49.8752 34.7882 50.6292 34.1507 51.248 33.392C51.7898 32.9277 52.2781 32.4045 52.704 31.832ZM42.304 19.032C42.2957 17.1986 42.8545 15.4074 43.904 13.904C45.1097 12.529 46.7501 11.6085 48.552 11.296C51.04 10.632 54.392 11.952 56.424 13.696C57.3964 14.7486 57.9634 16.1123 58.024 17.544C57.528 16.472 56.664 16.248 56.208 16.512C55.752 16.776 55.76 17.216 55.464 17.456C54.296 18.416 51.96 18.376 50.512 17.968C49.064 17.56 48.672 16.48 47.832 16.8C46.648 17.192 47.576 18.504 47.712 18.888C47.976 19.624 47.792 21.608 47.392 21.488C46.848 21.32 46.8 19.392 45.36 20C43.392 20.84 45.416 23.08 45.544 23.624C45.3556 24.0564 45.0439 24.4237 44.648 24.68C43.64 23.472 42.112 22.264 42.264 19.048L42.304 19.032ZM45.064 25.104C45 25.008 44.928 24.92 44.856 24.824C45.2901 24.5441 45.6366 24.1476 45.856 23.68C46.096 23.168 43.832 20.992 45.552 20.304C46.664 19.864 46.4 21.56 47.296 21.904C47.704 22.04 48.04 21.72 48.208 21.104C48.3914 20.3145 48.3914 19.4935 48.208 18.704C48.032 18.176 47.464 17.48 48 17.312C48.392 17.192 48.88 18.16 50.28 18.568C51.936 19.048 54.432 19.064 55.776 17.976C56.32 17.528 56.216 16.944 56.68 17.104C57.528 17.376 57.48 18.592 58.064 19.136C57.632 22.288 56.984 25.536 55.512 28.104C55.1493 28.6698 54.6549 29.1392 54.0711 29.4722C53.4874 29.8052 52.8316 29.9918 52.16 30.016C51.984 30.016 51.848 30.176 51.872 30.456C51.9279 30.8131 52.0081 31.1659 52.112 31.512C47.832 36 48.744 34.4 48.296 35.2C47.992 35.744 47.496 36.968 47.168 37.432C46.8489 36.8179 46.5813 36.1784 46.368 35.52C46.368 35.44 43.712 29.464 43.672 29.384C44.376 27.6 45.384 25.648 45.024 25.12L45.064 25.104ZM46.048 36.304C46.304 36.992 46.608 37.784 46.976 37.992C47.536 38.304 47.976 37.352 48.4 36.392C48.453 38.6689 48.6266 40.9414 48.92 43.2L46.048 43.352C46.16 42.336 46.072 39.104 46.008 36.352L46.048 36.304ZM42.848 35.904C42.576 35.272 40.512 29.368 40.448 29.04C41.2916 28.9634 42.1404 28.9634 42.984 29.04C44.112 31.872 45.472 35.008 45.488 35.312C44.56 35.616 43.304 35.88 42.808 35.952L42.848 35.904ZM25.488 66.048C30.0253 66.6733 34.6048 66.9408 39.184 66.848V68.448C32.408 68.584 27.92 68.496 25.128 68.448C25.224 67.512 25.352 66.704 25.488 66.048ZM25.072 68.72C27.344 68.912 29.72 68.984 32.04 69.032C31.952 71.432 27.24 75.952 24.344 77.304C24.552 73.952 24.8 70.992 25.072 68.72ZM27.24 154.872C26.088 155.672 23.24 155.528 22.912 154.072C23.3919 154.349 23.9242 154.524 24.475 154.584C25.0259 154.645 25.5833 154.59 26.112 154.424C28.736 153.624 30.712 148.92 31.528 146.32H31.944C31.144 149.104 29.224 153.52 27.24 154.872ZM26.832 150.592C26.8483 150.618 26.8551 150.65 26.8511 150.681C26.8472 150.711 26.8328 150.74 26.8103 150.762C26.7879 150.783 26.7587 150.796 26.7277 150.799C26.6967 150.802 26.6658 150.793 26.64 150.776C26.2801 150.655 25.9109 150.564 25.536 150.504C25.1592 150.457 24.7795 150.439 24.4 150.448C24.3853 150.457 24.369 150.463 24.352 150.465C24.335 150.468 24.3176 150.467 24.3009 150.463C24.2842 150.459 24.2684 150.452 24.2546 150.442C24.2407 150.432 24.2289 150.419 24.22 150.404C24.2111 150.389 24.2051 150.373 24.2025 150.356C24.1999 150.339 24.2006 150.322 24.2047 150.305C24.2088 150.288 24.2161 150.272 24.2263 150.259C24.2365 150.245 24.2493 150.233 24.264 150.224C24.4522 150.068 24.6709 149.954 24.9061 149.887C25.1412 149.821 25.3876 149.805 25.6295 149.84C25.8713 149.874 26.1032 149.959 26.3103 150.089C26.5174 150.218 26.6951 150.39 26.832 150.592ZM24.632 148.04C24.8336 147.904 25.0588 147.806 25.296 147.752C25.7743 147.671 26.2659 147.729 26.712 147.92C26.9312 148.038 27.1222 148.201 27.272 148.4C27.2857 148.41 27.2972 148.423 27.306 148.437C27.3148 148.451 27.3207 148.467 27.3233 148.484C27.3259 148.501 27.3252 148.518 27.3212 148.534C27.3172 148.551 27.31 148.566 27.3 148.58C27.29 148.594 27.2775 148.605 27.263 148.614C27.2486 148.623 27.2325 148.629 27.2158 148.631C27.1991 148.634 27.182 148.633 27.1656 148.629C27.1492 148.625 27.1337 148.618 27.12 148.608C26.96 148.552 26.016 148.4 25.936 148.392L24.712 148.296C24.6802 148.3 24.6478 148.293 24.6207 148.276C24.5935 148.259 24.5734 148.232 24.5638 148.202C24.5542 148.171 24.5558 148.138 24.5683 148.108C24.5808 148.079 24.6033 148.055 24.632 148.04ZM64.632 146.856C65.048 146.056 65.792 146.248 65.432 147.104C64.8 148.44 64.264 147.624 64.656 146.856H64.632ZM62.584 146.648C62.952 145.92 63.808 145.904 63.384 146.888C62.832 148.056 62.184 147.488 62.608 146.648H62.584ZM69.192 148.728C69.2318 148.997 69.2043 149.272 69.112 149.528C68.192 150.592 56.408 151.008 55.04 150.016C54.9584 149.692 54.8943 149.363 54.848 149.032C57.104 150.056 67.008 149.968 69.216 148.728H69.192ZM61.992 144.208C60.072 145.24 55.912 145.936 53.992 144.952C53.992 145.032 53.824 144.992 50.48 130.368C42.144 93.944 42.936 95.536 42.4 95.552C41.864 95.568 33.904 140.888 32.2 145.672C30.8 145.672 24.856 145.016 23.4 145.6C23.4 145.8 22.832 141.904 23.128 115.2C23.2 109.312 23.456 90.992 24.224 77.976C27.344 76.672 32.56 71.8 32.52 68.976H39.072C38.92 80.568 39.072 92.44 39.912 94.168C40.44 95.208 48.712 95.592 59.872 95.544C61.184 116.656 62.336 141.8 62.04 144.208H61.992ZM103.312 141.6C103.908 142.089 104.571 142.491 105.28 142.792C104.609 142.947 103.927 143.051 103.24 143.104C103.264 142.656 103.288 142.152 103.312 141.6ZM109.216 146.104C108.008 146.52 101.216 149.232 100.16 148.376C101.448 147.352 102.816 146.416 103.024 146.192C103.143 145.269 103.21 144.339 103.224 143.408C104.263 143.537 105.318 143.477 106.336 143.232C107.365 143.692 108.481 143.921 109.608 143.904C109.464 144.712 109.336 145.448 109.216 146.112V146.104ZM109.664 143.576C108.944 143.446 108.241 143.237 107.568 142.952C108.421 142.759 109.233 142.417 109.968 141.944C109.848 142.52 109.752 143.064 109.664 143.584V143.576ZM110.024 141.472C108.896 141.987 107.704 142.348 106.48 142.544C105.395 142.177 104.342 141.725 103.328 141.192C103.592 134.992 103.92 124.392 104.128 117.336C106.928 117.752 110.28 118.08 113.792 118.312C112.704 125.392 111.2 134.784 110.024 141.48V141.472ZM118.616 46.984C118.984 47.352 119.416 46.984 119.776 46.592C119.624 47.392 120.416 47.944 121.128 47.176C121.107 47.3332 121.133 47.4932 121.202 47.6356C121.272 47.7781 121.383 47.8965 121.52 47.976C122.56 48.496 123.296 46.992 123.84 45.776C125.824 53.776 124.24 90.216 122.848 90.96C117.592 93.736 41.8 96.672 40.448 93.984C39.096 91.296 39.56 58.704 40 48.544C40.144 48.544 40 48.448 40.6 49.056C40.96 49.424 41.4 49.856 41.88 49.728C41.996 49.7026 42.104 49.6493 42.1946 49.5726C42.2853 49.4959 42.3558 49.3982 42.4 49.288C42.4926 48.9886 42.4669 48.665 42.328 48.384C43.072 48.696 43.6 47.992 43.424 47.312C43.5849 47.3456 43.7524 47.3226 43.8983 47.2468C44.0441 47.1709 44.1592 47.047 44.224 46.896C44.488 46.368 43.896 45.616 43.424 45.12C56.984 43.992 104.944 43.576 119.192 44.256C118.776 44.848 118.128 46.496 118.616 46.984ZM125.384 62.184C125.384 58.552 125.384 49.536 124.416 45.68C126.504 48.296 130.248 50.184 133.688 51.44C133.84 56.16 133.936 61.392 133.688 62.472C130.916 62.5038 128.145 62.3943 125.384 62.144V62.184ZM132.4 144.584C131.32 145.184 124.928 149.112 123.784 148.456C124.912 147.208 126.136 146.056 126.296 145.784C126.275 144.85 126.203 143.918 126.08 142.992C127.136 142.932 128.173 142.685 129.144 142.264C130.229 142.534 131.36 142.561 132.456 142.344C132.44 143.2 132.416 143.912 132.4 144.584ZM125.896 141.184C126.568 141.559 127.294 141.828 128.048 141.984C127.4 142.257 126.734 142.486 126.056 142.672C126.008 142.24 125.952 141.728 125.896 141.184ZM132.472 141.984C131.737 141.991 131.005 141.914 130.288 141.752C131.103 141.405 131.853 140.921 132.504 140.32C132.496 140.92 132.48 141.48 132.472 142.008V141.984ZM132.52 139.84C131.48 140.554 130.35 141.127 129.16 141.544C128.035 141.384 126.929 141.116 125.856 140.744C125.776 140.68 126.128 142.496 123.344 118.648C126.832 118.648 130.128 118.592 132.84 118.36C132.8 125.264 132.656 133.688 132.52 139.864V139.84ZM134.992 72.8C132.97 71.964 131.203 70.6124 129.867 68.8802C128.53 67.148 127.672 65.0957 127.376 62.928C128.12 62.928 133.096 63.216 133.824 63.08C134.136 65.512 134.544 68.888 134.992 72.8ZM144.232 51.2C142.28 52.8 138.704 52.432 136.232 51.696C132.184 50.472 126.496 48.104 124.296 44.496C124.268 44.4442 124.226 44.401 124.175 44.3709C124.125 44.3408 124.067 44.325 124.008 44.325C123.949 44.325 123.891 44.3408 123.841 44.3709C123.79 44.401 123.748 44.4442 123.72 44.496C123.44 44.896 122.464 47.776 121.76 47.424C121.672 47.376 121.76 47.056 121.76 46.952C122.013 46.3013 122.226 45.6361 122.4 44.96C122.414 44.8865 122.402 44.8105 122.368 44.7441C122.333 44.6777 122.278 44.6247 122.21 44.5935C122.142 44.5623 122.066 44.5546 121.993 44.5718C121.92 44.5889 121.855 44.6298 121.808 44.688C121.592 44.912 121.256 45.944 120.84 46.552C120.656 46.816 120.368 47.12 120.376 46.768C120.527 46.0571 120.741 45.361 121.016 44.688C121.035 44.6174 121.029 44.5422 120.997 44.4762C120.966 44.4101 120.911 44.3577 120.844 44.3285C120.777 44.2994 120.702 44.2954 120.632 44.3173C120.562 44.3393 120.502 44.3857 120.464 44.448C120.087 45.195 119.602 45.8824 119.024 46.488C119.084 45.866 119.26 45.2607 119.544 44.704C120.72 42.736 121.144 42.432 123.408 42.048C127.272 41.384 128.28 41.592 130.784 42.504C133.696 43.56 133.68 43.752 133.872 43.64L141.216 39.2C142.426 40.2567 143.562 41.3954 144.616 42.608C146.88 45.832 147.32 48.624 144.232 51.136V51.2Z" fill="#012A38"/>
</svg>
